<?plantuml 1.2026.2?><svg xmlns="http://www.w3.org/2000/svg" xmlns:xlink="http://www.w3.org/1999/xlink" contentStyleType="text/css" data-diagram-type="DESCRIPTION" height="652px" preserveAspectRatio="none" style="width:3158px;height:652px;background:#FAFAFA;" version="1.1" viewBox="0 0 3158 652" width="3158px" zoomAndPan="magnify"><title>Komunikator SR &#8212; Diagram Przypadk&#243;w U&#380;ycia</title><defs/><g><rect fill="#FAFAFA" height="652" style="stroke:none;stroke-width:1;" width="3158" x="0" y="0"/><g class="title" data-source-line="13"><text fill="#000000" font-family="Verdana" font-size="22" font-weight="bold" lengthAdjust="spacing" textLength="588.9727" x="1280.2089" y="35.4209">Komunikator SR &#8212; Diagram Przypadk&#243;w U&#380;ycia</text></g><!--cluster Autentykacja--><g class="cluster" data-qualified-name="Autentykacja" data-source-line="28" id="ent0006"><path d="M13.5,406.6794 L118.5771,406.6794 A3.75,3.75 0 0 1 121.0771,409.1794 L128.0771,428.9762 L499.5,428.9762 A2.5,2.5 0 0 1 502,431.4762 L502,643.2594 A2.5,2.5 0 0 1 499.5,645.7594 L13.5,645.7594 A2.5,2.5 0 0 1 11,643.2594 L11,409.1794 A2.5,2.5 0 0 1 13.5,406.6794" fill="#EBF5FB" style="stroke:#85C1E9;stroke-width:1;"/><line style="stroke:#85C1E9;stroke-width:1;" x1="11" x2="128.0771" y1="428.9762" y2="428.9762"/><text fill="#000000" font-family="Verdana" font-size="14" font-weight="bold" lengthAdjust="spacing" textLength="104.0771" x="15" y="421.6745">Autentykacja</text></g><!--cluster Czat Prywatny (1:1)--><g class="cluster" data-qualified-name="Czat Prywatny .1.1." data-source-line="39" id="ent0011"><path d="M1617.5,215.5094 L1775.1455,215.5094 A3.75,3.75 0 0 1 1777.6455,218.0094 L1784.6455,237.8062 L2352.5,237.8062 A2.5,2.5 0 0 1 2355,240.3062 L2355,513.0394 A2.5,2.5 0 0 1 2352.5,515.5394 L1617.5,515.5394 A2.5,2.5 0 0 1 1615,513.0394 L1615,218.0094 A2.5,2.5 0 0 1 1617.5,215.5094" fill="#EBF5FB" style="stroke:#85C1E9;stroke-width:1;"/><line style="stroke:#85C1E9;stroke-width:1;" x1="1615" x2="1784.6455" y1="237.8062" y2="237.8062"/><text fill="#000000" font-family="Verdana" font-size="14" font-weight="bold" lengthAdjust="spacing" textLength="156.6455" x="1619" y="230.5045">Czat Prywatny (1:1)</text></g><!--cluster Pokoje Grupowe--><g class="cluster" data-qualified-name="Pokoje Grupowe" data-source-line="51" id="ent0017"><path d="M528.5,214.1994 L657.9063,214.1994 A3.75,3.75 0 0 1 660.4063,216.6994 L667.4063,236.4962 L1538.5,236.4962 A2.5,2.5 0 0 1 1541,238.9962 L1541,502.7594 A2.5,2.5 0 0 1 1538.5,505.2594 L528.5,505.2594 A2.5,2.5 0 0 1 526,502.7594 L526,216.6994 A2.5,2.5 0 0 1 528.5,214.1994" fill="#EBF5FB" style="stroke:#85C1E9;stroke-width:1;"/><line style="stroke:#85C1E9;stroke-width:1;" x1="526" x2="667.4063" y1="236.4962" y2="236.4962"/><text fill="#000000" font-family="Verdana" font-size="14" font-weight="bold" lengthAdjust="spacing" textLength="128.4063" x="530" y="229.1945">Pokoje Grupowe</text></g><!--cluster Obecno?? i Kontakty--><g class="cluster" data-qualified-name="Obecno.. i Kontakty" data-source-line="64" id="ent0024"><path d="M2504.5,214.5994 L2667.6826,214.5994 A3.75,3.75 0 0 1 2670.1826,217.0994 L2677.1826,236.8962 L2930.5,236.8962 A2.5,2.5 0 0 1 2933,239.3962 L2933,511.1394 A2.5,2.5 0 0 1 2930.5,513.6394 L2504.5,513.6394 A2.5,2.5 0 0 1 2502,511.1394 L2502,217.0994 A2.5,2.5 0 0 1 2504.5,214.5994" fill="#EBF5FB" style="stroke:#85C1E9;stroke-width:1;"/><line style="stroke:#85C1E9;stroke-width:1;" x1="2502" x2="2677.1826" y1="236.8962" y2="236.8962"/><text fill="#000000" font-family="Verdana" font-size="14" font-weight="bold" lengthAdjust="spacing" textLength="162.1826" x="2506" y="229.5945">Obecno&#347;&#263; i Kontakty</text></g><!--entity UC01--><g class="entity" data-qualified-name="Autentykacja.UC01" data-source-line="29" id="ent0007"><ellipse cx="106.9978" cy="465.6772" fill="#E8F4FD" rx="80.2578" ry="23.6079" style="stroke:#2980B9;stroke-width:1;"/><text fill="#000000" font-family="Verdana" font-size="14" lengthAdjust="spacing" textLength="37.8369" x="88.0794" y="458.4937">UC01</text><text fill="#000000" font-family="Verdana" font-size="14" lengthAdjust="spacing" textLength="122.1924" x="45.9016" y="474.7905">Rejestracja konta</text></g><!--entity UC02--><g class="entity" data-qualified-name="Autentykacja.UC02" data-source-line="30" id="ent0008"><ellipse cx="273.9989" cy="465.6751" fill="#E8F4FD" rx="51.4789" ry="24.0058" style="stroke:#2980B9;stroke-width:1;"/><text fill="#000000" font-family="Verdana" font-size="14" lengthAdjust="spacing" textLength="37.8369" x="255.0805" y="459.1317">UC02</text><text fill="#000000" font-family="Verdana" font-size="14" lengthAdjust="spacing" textLength="75.2227" x="236.3876" y="475.4286">Logowanie</text></g><!--entity UC03--><g class="entity" data-qualified-name="Autentykacja.UC03" data-source-line="31" id="ent0009"><ellipse cx="422.9991" cy="465.6782" fill="#E8F4FD" rx="62.5691" ry="23.7788" style="stroke:#2980B9;stroke-width:1;"/><text fill="#000000" font-family="Verdana" font-size="14" lengthAdjust="spacing" textLength="37.8369" x="404.0806" y="458.772">UC03</text><text fill="#000000" font-family="Verdana" font-size="14" lengthAdjust="spacing" textLength="93.4404" x="376.2789" y="475.0689">Wylogowanie</text></g><!--entity UC04--><g class="entity" data-qualified-name="Autentykacja.UC04" data-source-line="32" id="ent0010"><ellipse cx="387.0035" cy="606.2434" fill="#E8F4FD" rx="98.5735" ry="23.524" style="stroke:#2980B9;stroke-width:1;"/><text fill="#000000" font-family="Verdana" font-size="14" lengthAdjust="spacing" textLength="37.8369" x="368.0851" y="598.9224">UC04</text><text fill="#000000" font-family="Verdana" font-size="14" lengthAdjust="spacing" textLength="151.7783" x="311.1144" y="615.2192">Walidacja tokenu JWT</text></g><!--entity UC05--><g class="entity" data-qualified-name="Czat Prywatny .1.1..UC05" data-source-line="40" id="ent0012"><ellipse cx="1713.9966" cy="281.3826" fill="#E8F4FD" rx="83.2566" ry="29.1133" style="stroke:#2980B9;stroke-width:1;"/><text fill="#000000" font-family="Verdana" font-size="14" lengthAdjust="spacing" textLength="37.8369" x="1695.0782" y="268.8021">UC05</text><text fill="#000000" font-family="Verdana" font-size="14" lengthAdjust="spacing" textLength="150.2607" x="1638.8663" y="285.099">Wys&#322;anie wiadomo&#347;ci</text><text fill="#000000" font-family="Verdana" font-size="14" lengthAdjust="spacing" textLength="69.8223" x="1679.0855" y="301.3959">prywatnej</text></g><!--entity UC06--><g class="entity" data-qualified-name="Czat Prywatny .1.1..UC06" data-source-line="41" id="ent0013"><ellipse cx="2263.0046" cy="281.3831" fill="#E8F4FD" rx="75.6746" ry="29.5337" style="stroke:#2980B9;stroke-width:1;"/><text fill="#000000" font-family="Verdana" font-size="14" lengthAdjust="spacing" textLength="37.8369" x="2244.0861" y="268.561">UC06</text><text fill="#000000" font-family="Verdana" font-size="14" lengthAdjust="spacing" textLength="133.9092" x="2196.05" y="284.8579">Odbi&#243;r wiadomo&#347;ci</text><text fill="#000000" font-family="Verdana" font-size="14" lengthAdjust="spacing" textLength="69.8223" x="2228.0935" y="301.1548">prywatnej</text></g><!--entity UC07--><g class="entity" data-qualified-name="Czat Prywatny .1.1..UC07" data-source-line="42" id="ent0014"><ellipse cx="2072.9962" cy="281.384" fill="#E8F4FD" rx="78.9162" ry="29.0546" style="stroke:#2980B9;stroke-width:1;"/><text fill="#000000" font-family="Verdana" font-size="14" lengthAdjust="spacing" textLength="37.8369" x="2054.0777" y="268.9482">UC07</text><text fill="#000000" font-family="Verdana" font-size="14" lengthAdjust="spacing" textLength="142.4541" x="2001.7691" y="285.2451">Przegl&#261;danie historii</text><text fill="#000000" font-family="Verdana" font-size="14" lengthAdjust="spacing" textLength="63.6084" x="2041.192" y="301.542">rozmowy</text></g><!--entity UC08--><g class="entity" data-qualified-name="Czat Prywatny .1.1..UC08" data-source-line="43" id="ent0015"><ellipse cx="1895.9965" cy="281.3798" fill="#E8F4FD" rx="63.3665" ry="30.8704" style="stroke:#2980B9;stroke-width:1;"/><text fill="#000000" font-family="Verdana" font-size="14" lengthAdjust="spacing" textLength="37.8369" x="1877.078" y="267.7103">UC08</text><text fill="#000000" font-family="Verdana" font-size="14" lengthAdjust="spacing" textLength="105.8955" x="1843.0487" y="284.0071">Powiadomienie</text><text fill="#000000" font-family="Verdana" font-size="14" lengthAdjust="spacing" textLength="71.6953" x="1860.1488" y="300.304">\"pisze...\"</text></g><!--entity UC09--><g class="entity" data-qualified-name="Czat Prywatny .1.1..UC09" data-source-line="44" id="ent0016"><ellipse cx="2251.9953" cy="465.6832" fill="#E8F4FD" rx="87.2353" ry="33.8538" style="stroke:#2980B9;stroke-width:1;"/><text fill="#000000" font-family="Verdana" font-size="14" lengthAdjust="spacing" textLength="37.8369" x="2233.0769" y="448.4145">UC09</text><text fill="#000000" font-family="Verdana" font-size="14" lengthAdjust="spacing" textLength="98.4307" x="2202.78" y="464.7113">Potwierdzenie</text><text fill="#000000" font-family="Verdana" font-size="14" lengthAdjust="spacing" textLength="133.4785" x="2185.2561" y="481.0082">dostarczenia (ACK)</text></g><!--entity UC10--><g class="entity" data-qualified-name="Pokoje Grupowe.UC10" data-source-line="52" id="ent0018"><ellipse cx="875.9969" cy="465.6788" fill="#E8F4FD" rx="85.1969" ry="23.5794" style="stroke:#2980B9;stroke-width:1;"/><text fill="#000000" font-family="Verdana" font-size="14" lengthAdjust="spacing" textLength="37.8369" x="857.0784" y="458.4488">UC10</text><text fill="#000000" font-family="Verdana" font-size="14" lengthAdjust="spacing" textLength="130.1836" x="810.9051" y="474.7456">Utworzenie pokoju</text></g><!--entity UC11--><g class="entity" data-qualified-name="Pokoje Grupowe.UC11" data-source-line="53" id="ent0019"><ellipse cx="841.0015" cy="281.3767" fill="#E8F4FD" rx="97.5815" ry="23.5273" style="stroke:#2980B9;stroke-width:1;"/><text fill="#000000" font-family="Verdana" font-size="14" lengthAdjust="spacing" textLength="37.8369" x="822.083" y="274.0611">UC11</text><text fill="#000000" font-family="Verdana" font-size="14" lengthAdjust="spacing" textLength="150.1787" x="765.9121" y="290.358">Do&#322;&#261;czenie do pokoju</text></g><!--entity UC12--><g class="entity" data-qualified-name="Pokoje Grupowe.UC12" data-source-line="54" id="ent0020"><ellipse cx="625.001" cy="281.375" fill="#E8F4FD" rx="83.141" ry="29.0756" style="stroke:#2980B9;stroke-width:1;"/><text fill="#000000" font-family="Verdana" font-size="14" lengthAdjust="spacing" textLength="37.8369" x="606.0825" y="268.8332">UC12</text><text fill="#000000" font-family="Verdana" font-size="14" lengthAdjust="spacing" textLength="150.2607" x="549.8706" y="285.1301">Wys&#322;anie wiadomo&#347;ci</text><text fill="#000000" font-family="Verdana" font-size="14" lengthAdjust="spacing" textLength="68.79" x="590.6059" y="301.427">do pokoju</text></g><!--entity UC13--><g class="entity" data-qualified-name="Pokoje Grupowe.UC13" data-source-line="55" id="ent0021"><ellipse cx="1449.0045" cy="281.3759" fill="#E8F4FD" rx="75.7645" ry="29.5665" style="stroke:#2980B9;stroke-width:1;"/><text fill="#000000" font-family="Verdana" font-size="14" lengthAdjust="spacing" textLength="37.8369" x="1430.0861" y="268.5199">UC13</text><text fill="#000000" font-family="Verdana" font-size="14" lengthAdjust="spacing" textLength="133.9092" x="1382.0499" y="284.8168">Odbi&#243;r wiadomo&#347;ci</text><text fill="#000000" font-family="Verdana" font-size="14" lengthAdjust="spacing" textLength="70.5332" x="1413.7379" y="301.1136">pokojowej</text></g><!--entity UC14--><g class="entity" data-qualified-name="Pokoje Grupowe.UC14" data-source-line="56" id="ent0022"><ellipse cx="1051.9999" cy="281.377" fill="#E8F4FD" rx="78.0799" ry="28.7676" style="stroke:#2980B9;stroke-width:1;"/><text fill="#000000" font-family="Verdana" font-size="14" lengthAdjust="spacing" textLength="37.8369" x="1033.0814" y="269.7286">UC14</text><text fill="#000000" font-family="Verdana" font-size="14" lengthAdjust="spacing" textLength="142.4541" x="980.7729" y="286.0254">Przegl&#261;danie historii</text><text fill="#000000" font-family="Verdana" font-size="14" lengthAdjust="spacing" textLength="46.8877" x="1028.5561" y="302.3223">pokoju</text></g><!--entity UC15--><g class="entity" data-qualified-name="Pokoje Grupowe.UC15" data-source-line="57" id="ent0023"><ellipse cx="1252.0026" cy="281.3748" fill="#E8F4FD" rx="86.4226" ry="32.1755" style="stroke:#2980B9;stroke-width:1;"/><text fill="#000000" font-family="Verdana" font-size="14" lengthAdjust="spacing" textLength="37.8369" x="1233.0841" y="265.7564">UC15</text><text fill="#000000" font-family="Verdana" font-size="14" lengthAdjust="spacing" textLength="139.7949" x="1182.1051" y="282.0533">Opuszczenie pokoju</text><text fill="#000000" font-family="Verdana" font-size="14" lengthAdjust="spacing" textLength="118.8564" x="1192.5744" y="298.3501">(Socket.IO room)</text></g><!--entity UC16--><g class="entity" data-qualified-name="Obecno.. i Kontakty.UC16" data-source-line="65" id="ent0025"><ellipse cx="2594.0005" cy="281.3792" fill="#E8F4FD" rx="75.7905" ry="31.7798" style="stroke:#2980B9;stroke-width:1;"/><text fill="#000000" font-family="Verdana" font-size="14" lengthAdjust="spacing" textLength="37.8369" x="2575.082" y="266.3853">UC16</text><text fill="#000000" font-family="Verdana" font-size="14" lengthAdjust="spacing" textLength="123.6553" x="2532.1728" y="282.6821">Przegl&#261;danie listy</text><text fill="#000000" font-family="Verdana" font-size="14" lengthAdjust="spacing" textLength="99.0049" x="2544.498" y="298.979">u&#380;ytkownik&#243;w</text></g><!--entity UC17--><g class="entity" data-qualified-name="Obecno.. i Kontakty.UC17" data-source-line="66" id="ent0026"><ellipse cx="2794.9961" cy="465.6751" fill="#E8F4FD" rx="69.6161" ry="31.9558" style="stroke:#2980B9;stroke-width:1;"/><text fill="#000000" font-family="Verdana" font-size="14" lengthAdjust="spacing" textLength="37.8369" x="2776.0776" y="450.7085">UC17</text><text fill="#000000" font-family="Verdana" font-size="14" lengthAdjust="spacing" textLength="112.4785" x="2738.7568" y="467.0053">Podgl&#261;d statusu</text><text fill="#000000" font-family="Verdana" font-size="14" lengthAdjust="spacing" textLength="91.1094" x="2749.4414" y="483.3022">online/offline</text></g><!--entity UC18--><g class="entity" data-qualified-name="Obecno.. i Kontakty.UC18" data-source-line="67" id="ent0027"><ellipse cx="2811.0001" cy="281.3823" fill="#E8F4FD" rx="106.0101" ry="31.2629" style="stroke:#2980B9;stroke-width:1;"/><text fill="#000000" font-family="Verdana" font-size="14" lengthAdjust="spacing" textLength="37.8369" x="2792.0817" y="266.397">UC18</text><text fill="#000000" font-family="Verdana" font-size="14" lengthAdjust="spacing" textLength="178.1924" x="2721.9039" y="282.6939">Powiadomienie o zmianie</text><text fill="#000000" font-family="Verdana" font-size="14" lengthAdjust="spacing" textLength="136.999" x="2742.5006" y="298.9907">statusu (broadcast)</text></g><!--entity Guest--><g class="entity" data-qualified-name="Guest" data-source-line="19" id="ent0002"><ellipse cx="449.0011" cy="251.0794" fill="#D3D3D3" rx="16" ry="16" style="stroke:#000000;stroke-width:1;"/><path d="M449.0011,271.0794 C453.0011,271.0794 456.0011,271.0794 460.0011,267.0794 C468.0011,267.0794 476.0011,275.0794 476.0011,283.0794 L476.0011,287.0794 C476.0011,291.0794 472.0011,295.0794 468.0011,295.0794 L430.0011,295.0794 C426.0011,295.0794 422.0011,291.0794 422.0011,287.0794 L422.0011,283.0794 C422.0011,275.0794 430.0011,267.0794 438.0011,267.0794 C442.0011,271.0794 445.0011,271.0794 449.0011,271.0794" fill="#D3D3D3" style="stroke:#000000;stroke-width:1;"/><text fill="#000000" font-family="Verdana" font-size="14" lengthAdjust="spacing" textLength="34.4053" x="391.34" y="309.0745">Go&#347;&#263;</text><text fill="#000000" font-family="Verdana" font-size="14" lengthAdjust="spacing" textLength="115.3223" x="391.34" y="325.3714">(niezalogowany)</text></g><!--entity User--><g class="entity" data-qualified-name="User" data-source-line="20" id="ent0003"><ellipse cx="1578.0031" cy="73.6094" fill="#5DADE2" rx="16" ry="16" style="stroke:#000000;stroke-width:1;"/><path d="M1578.0031,93.6094 C1582.0031,93.6094 1585.0031,93.6094 1589.0031,89.6094 C1597.0031,89.6094 1605.0031,97.6094 1605.0031,105.6094 L1605.0031,109.6094 C1605.0031,113.6094 1601.0031,117.6094 1597.0031,117.6094 L1559.0031,117.6094 C1555.0031,117.6094 1551.0031,113.6094 1551.0031,109.6094 L1551.0031,105.6094 C1551.0031,97.6094 1559.0031,89.6094 1567.0031,89.6094 C1571.0031,93.6094 1574.0031,93.6094 1578.0031,93.6094" fill="#5DADE2" style="stroke:#000000;stroke-width:1;"/><text fill="#000000" font-family="Verdana" font-size="14" lengthAdjust="spacing" textLength="80.3633" x="1531.03" y="131.6045">U&#380;ytkownik</text><text fill="#000000" font-family="Verdana" font-size="14" lengthAdjust="spacing" textLength="93.9463" x="1531.03" y="147.9014">(zalogowany)</text></g><!--entity DB--><g class="entity" data-qualified-name="DB" data-source-line="21" id="ent0004"><ellipse cx="471.9966" cy="73.6094" fill="#90EE90" rx="16" ry="16" style="stroke:#000000;stroke-width:1;"/><path d="M471.9966,93.6094 C475.9966,93.6094 478.9966,93.6094 482.9966,89.6094 C490.9966,89.6094 498.9966,97.6094 498.9966,105.6094 L498.9966,109.6094 C498.9966,113.6094 494.9966,117.6094 490.9966,117.6094 L452.9966,117.6094 C448.9966,117.6094 444.9966,113.6094 444.9966,109.6094 L444.9966,105.6094 C444.9966,97.6094 452.9966,89.6094 460.9966,89.6094 C464.9966,93.6094 467.9966,93.6094 471.9966,93.6094" fill="#90EE90" style="stroke:#000000;stroke-width:1;"/><text fill="#000000" font-family="Verdana" font-size="14" lengthAdjust="spacing" textLength="80.7529" x="420.71" y="131.6045">PostgreSQL</text><text fill="#000000" font-family="Verdana" font-size="14" lengthAdjust="spacing" textLength="102.5732" x="420.71" y="147.9014">(Baza Danych)</text></g><!--entity WS--><g class="entity" data-qualified-name="WS" data-source-line="22" id="ent0005"><ellipse cx="2341.9994" cy="73.6094" fill="#FFB347" rx="16" ry="16" style="stroke:#000000;stroke-width:1;"/><path d="M2341.9994,93.6094 C2345.9994,93.6094 2348.9994,93.6094 2352.9994,89.6094 C2360.9994,89.6094 2368.9994,97.6094 2368.9994,105.6094 L2368.9994,109.6094 C2368.9994,113.6094 2364.9994,117.6094 2360.9994,117.6094 L2322.9994,117.6094 C2318.9994,117.6094 2314.9994,113.6094 2314.9994,109.6094 L2314.9994,105.6094 C2314.9994,97.6094 2322.9994,89.6094 2330.9994,89.6094 C2334.9994,93.6094 2337.9994,93.6094 2341.9994,93.6094" fill="#FFB347" style="stroke:#000000;stroke-width:1;"/><text fill="#000000" font-family="Verdana" font-size="14" lengthAdjust="spacing" textLength="66.958" x="2298.41" y="131.6045">Socket.IO</text><text fill="#000000" font-family="Verdana" font-size="14" lengthAdjust="spacing" textLength="87.1787" x="2298.41" y="147.9014">(Serwer WS)</text></g><g class="entity" data-qualified-name="GMN62" data-source-line="128" id="ent0063"><path d="M2621.94,578.5394 L2621.94,633.9378 L2838.0606,633.9378 L2838.0606,588.5394 L2828.0606,578.5394 L2621.94,578.5394" fill="#FEF9E7" style="stroke:#F0B429;stroke-width:1;"/><path d="M2828.0606,578.5394 L2828.0606,588.5394 L2838.0606,588.5394 L2828.0606,578.5394" fill="#FEF9E7" style="stroke:#F0B429;stroke-width:1;"/><text fill="#000000" font-family="Verdana" font-size="13" lengthAdjust="spacing" textLength="169.5903" x="2627.94" y="595.6063">Ka&#380;dy chroniony endpoint</text><text fill="#000000" font-family="Verdana" font-size="13" lengthAdjust="spacing" textLength="195.1206" x="2627.94" y="610.7391">wymaga wa&#380;nego tokenu JWT</text><text fill="#000000" font-family="Verdana" font-size="13" lengthAdjust="spacing" textLength="168.4731" x="2627.94" y="625.8719">w nag&#322;&#243;wku Authorization</text></g><g class="entity" data-qualified-name="GMN65" data-source-line="134" id="ent0066"><path d="M2395.23,578.5394 L2395.23,633.9378 A0,0 0 0 0 2395.23,633.9378 L2586.7788,633.9378 A0,0 0 0 0 2586.7788,633.9378 L2586.7788,588.5394 L2576.7788,578.5394 L2448.11,578.5394 L2299.79,494.3894 L2440.11,578.5394 L2395.23,578.5394 A0,0 0 0 0 2395.23,578.5394" fill="#FEF9E7" style="stroke:#F0B429;stroke-width:1;"/><path d="M2576.7788,578.5394 L2576.7788,588.5394 L2586.7788,588.5394 L2576.7788,578.5394" fill="#FEF9E7" style="stroke:#F0B429;stroke-width:1;"/><text fill="#000000" font-family="Verdana" font-size="13" lengthAdjust="spacing" textLength="97.0493" x="2401.23" y="595.6063">Server ustawia</text><text fill="#000000" font-family="Verdana" font-size="13" lengthAdjust="spacing" textLength="170.5488" x="2401.23" y="610.7391">Message.delivered = True</text><text fill="#000000" font-family="Verdana" font-size="13" lengthAdjust="spacing" textLength="169.9585" x="2401.23" y="625.8719">i emituje ACK do nadawcy</text></g><g class="entity" data-qualified-name="GMN68" data-source-line="140" id="ent0069"><path d="M2948.6,437.9794 L2948.6,493.3778 L3151.3905,493.3778 L3151.3905,447.9794 L3141.3905,437.9794 L2948.6,437.9794" fill="#FEF9E7" style="stroke:#F0B429;stroke-width:1;"/><path d="M3141.3905,437.9794 L3141.3905,447.9794 L3151.3905,447.9794 L3141.3905,437.9794" fill="#FEF9E7" style="stroke:#F0B429;stroke-width:1;"/><text fill="#000000" font-family="Verdana" font-size="13" lengthAdjust="spacing" textLength="175.2461" x="2954.6" y="455.0463">Broadcast do WSZYSTKICH</text><text fill="#000000" font-family="Verdana" font-size="13" lengthAdjust="spacing" textLength="139.915" x="2954.6" y="470.1791">po&#322;&#261;czonych klient&#243;w</text><text fill="#000000" font-family="Verdana" font-size="13" lengthAdjust="spacing" textLength="181.7905" x="2954.6" y="485.3119">przy ka&#380;dej zmianie statusu</text></g><!--link Guest to UC01--><g class="link" data-entity-1="ent0002" data-entity-2="ent0007" data-link-type="dependency" data-source-line="74" id="lnk28"><path d="M391.08,307.0694 C340.86,329.1694 266.74,363.4294 205,398.6794 C181.13,412.3094 160.2969,426.2823 141.1869,439.8123" fill="none" id="Guest-to-UC01" style="stroke:#2C3E50;stroke-width:1;"/><polygon fill="#2C3E50" points="136.29,443.2794,145.9467,441.3434,140.3708,440.3902,141.324,434.8142,136.29,443.2794" style="stroke:#2C3E50;stroke-width:1;"/></g><!--link Guest to UC02--><g class="link" data-entity-1="ent0002" data-entity-2="ent0008" data-link-type="dependency" data-source-line="75" id="lnk29"><path d="M444.94,328.9094 C440.52,350.9594 431.46,375.6894 413,390.6794 C388.69,410.4094 371.35,385.3794 343,398.6794 C321.84,408.5994 306.8971,423.0151 294.2971,438.0951" fill="none" id="Guest-to-UC02" style="stroke:#2C3E50;stroke-width:1;"/><polygon fill="#2C3E50" points="290.45,442.6994,299.2902,438.3576,293.6559,438.8624,293.1511,433.2282,290.45,442.6994" style="stroke:#2C3E50;stroke-width:1;"/></g><!--link User to UC03--><g class="link" data-entity-1="ent0003" data-entity-2="ent0009" data-link-type="dependency" data-source-line="81" id="lnk30"><path d="M1530.71,105.1994 C1317.61,106.9994 453.59,119.6294 374,206.1994 C312.33,273.2794 373.3295,387.7206 404.6695,437.2006" fill="none" id="User-to-UC03" style="stroke:#2C3E50;stroke-width:1;"/><polygon fill="#2C3E50" points="407.88,442.2694,406.4434,432.5259,405.2046,438.0454,399.685,436.8065,407.88,442.2694" style="stroke:#2C3E50;stroke-width:1;"/></g><!--link User to UC05--><g class="link" data-entity-1="ent0003" data-entity-2="ent0012" data-link-type="dependency" data-source-line="82" id="lnk31"><path d="M1614.09,151.4694 C1639.11,183.7594 1667.9133,220.9279 1688.9433,248.0479" fill="none" id="User-to-UC05" style="stroke:#2C3E50;stroke-width:1;"/><polygon fill="#2C3E50" points="1692.62,252.7894,1690.2659,243.226,1689.556,248.8381,1683.9439,248.1283,1692.62,252.7894" style="stroke:#2C3E50;stroke-width:1;"/></g><!--link User to UC06--><g class="link" data-entity-1="ent0003" data-entity-2="ent0013" data-link-type="dependency" data-source-line="83" id="lnk32"><path d="M1625.34,123.3294 C1692.66,149.3594 1810.22,194.2394 1831,198.1994 C1867.9,205.2394 2133.66,193.4694 2169,206.1994 C2195.6,215.7894 2216.1662,231.9388 2233.6262,248.8988" fill="none" id="User-to-UC06" style="stroke:#2C3E50;stroke-width:1;"/><polygon fill="#2C3E50" points="2237.93,253.0794,2234.2613,243.9393,2234.3435,249.5956,2228.6872,249.6777,2237.93,253.0794" style="stroke:#2C3E50;stroke-width:1;"/></g><!--link User to UC07--><g class="link" data-entity-1="ent0003" data-entity-2="ent0014" data-link-type="dependency" data-source-line="84" id="lnk33"><path d="M1625.31,105.5094 C1702.13,108.2894 1856.89,121.5694 1971,181.1994 C2004.27,198.5894 2030.1979,225.6497 2048.8579,248.5297" fill="none" id="User-to-UC07" style="stroke:#2C3E50;stroke-width:1;"/><polygon fill="#2C3E50" points="2052.65,253.1794,2050.0616,243.6767,2049.4899,249.3046,2043.862,248.7329,2052.65,253.1794" style="stroke:#2C3E50;stroke-width:1;"/></g><!--link User to UC08--><g class="link" data-entity-1="ent0003" data-entity-2="ent0015" data-link-type="dependency" data-source-line="85" id="lnk34"><path d="M1625.27,132.2394 C1663.45,153.1994 1719.16,181.3094 1771,198.1994 C1789.9,204.3594 1797.2,197.3694 1815,206.1994 C1837.38,217.3094 1853.985,232.0655 1868.855,248.1355" fill="none" id="User-to-UC08" style="stroke:#2C3E50;stroke-width:1;"/><polygon fill="#2C3E50" points="1872.93,252.5394,1869.7534,243.2169,1869.5341,248.8695,1863.8815,248.6502,1872.93,252.5394" style="stroke:#2C3E50;stroke-width:1;"/></g><!--link User to UC10--><g class="link" data-entity-1="ent0003" data-entity-2="ent0018" data-link-type="dependency" data-source-line="86" id="lnk35"><path d="M1584.58,151.4094 C1588.91,201.9194 1587.07,281.6694 1542,328.6794 C1462.47,411.6194 1124.4926,446.6226 964.4526,458.8426" fill="none" id="User-to-UC10" style="stroke:#2C3E50;stroke-width:1;"/><polygon fill="#2C3E50" points="958.47,459.2994,967.7484,462.6026,963.4555,458.9187,967.1393,454.6258,958.47,459.2994" style="stroke:#2C3E50;stroke-width:1;"/></g><!--link User to UC11--><g class="link" data-entity-1="ent0003" data-entity-2="ent0019" data-link-type="dependency" data-source-line="87" id="lnk36"><path d="M1530.56,112.3194 C1460.5,123.8394 1325.6,148.1894 1214,181.1994 C1193.9,187.1494 1190.53,193.9794 1170,198.1994 C1123.39,207.7994 1001.39,191.9094 956,206.1994 C922.01,216.9094 893.0442,236.7775 871.0142,254.5075" fill="none" id="User-to-UC11" style="stroke:#2C3E50;stroke-width:1;"/><polygon fill="#2C3E50" points="866.34,258.2694,875.8592,255.7427,870.2352,255.1345,870.8434,249.5104,866.34,258.2694" style="stroke:#2C3E50;stroke-width:1;"/></g><!--link User to UC12--><g class="link" data-entity-1="ent0003" data-entity-2="ent0020" data-link-type="dependency" data-source-line="88" id="lnk37"><path d="M1530.61,114.8694 C1433.25,134.8594 1203.4,179.5294 1008,198.1994 C976.8,201.1894 755.65,196.0194 726,206.1994 C697.81,215.8894 675.3337,232.44 656.3737,249.47" fill="none" id="User-to-UC12" style="stroke:#2C3E50;stroke-width:1;"/><polygon fill="#2C3E50" points="651.91,253.4794,661.2785,250.4412,655.6298,250.1382,655.9327,244.4895,651.91,253.4794" style="stroke:#2C3E50;stroke-width:1;"/></g><!--link User to UC13--><g class="link" data-entity-1="ent0003" data-entity-2="ent0021" data-link-type="dependency" data-source-line="89" id="lnk38"><path d="M1530.77,104.9794 C1475.43,107.9294 1385.87,122.2094 1343,181.1994 C1338.56,187.3194 1339.31,191.6094 1343,198.1994 C1346.31,204.1294 1350.45,202.2994 1356,206.1994 C1377.29,221.1594 1395.5221,235.5507 1413.2521,250.1807" fill="none" id="User-to-UC13" style="stroke:#2C3E50;stroke-width:1;"/><polygon fill="#2C3E50" points="1417.88,253.9994,1413.484,245.186,1414.0234,250.8171,1408.3924,251.3565,1417.88,253.9994" style="stroke:#2C3E50;stroke-width:1;"/></g><!--link User to UC14--><g class="link" data-entity-1="ent0003" data-entity-2="ent0022" data-link-type="dependency" data-source-line="90" id="lnk39"><path d="M1530.74,119.1294 C1461.74,139.4094 1329.09,176.5794 1214,198.1994 C1184.96,203.6594 1175.34,194.9894 1148,206.1994 C1121.5,217.0694 1100.4729,233.2642 1082.4529,249.8642" fill="none" id="User-to-UC14" style="stroke:#2C3E50;stroke-width:1;"/><polygon fill="#2C3E50" points="1078.04,253.9294,1087.3696,250.7735,1081.7175,250.5417,1081.9493,244.8896,1078.04,253.9294" style="stroke:#2C3E50;stroke-width:1;"/></g><!--link User to UC15--><g class="link" data-entity-1="ent0003" data-entity-2="ent0023" data-link-type="dependency" data-source-line="91" id="lnk40"><path d="M1530.94,111.1094 C1478.62,119.8094 1393.41,139.5194 1332,181.1994 C1305.83,198.9694 1287.1876,222.8007 1272.9576,244.8107" fill="none" id="User-to-UC15" style="stroke:#2C3E50;stroke-width:1;"/><polygon fill="#2C3E50" points="1269.7,249.8494,1277.9455,244.4631,1272.4147,245.6505,1271.2273,240.1197,1269.7,249.8494" style="stroke:#2C3E50;stroke-width:1;"/></g><!--link User to UC16--><g class="link" data-entity-1="ent0003" data-entity-2="ent0025" data-link-type="dependency" data-source-line="92" id="lnk41"><path d="M1625.47,112.6094 C1739.82,130.8394 2039.77,176.6994 2292,198.1994 C2314.05,200.0794 2470.08,198.9894 2491,206.1994 C2518.5,215.6894 2540.4761,231.191 2559.7261,247.791" fill="none" id="User-to-UC16" style="stroke:#2C3E50;stroke-width:1;"/><polygon fill="#2C3E50" points="2564.27,251.7094,2560.0664,242.8026,2560.4835,248.4441,2554.842,248.8611,2564.27,251.7094" style="stroke:#2C3E50;stroke-width:1;"/></g><!--link User to UC17--><g class="link" data-entity-1="ent0003" data-entity-2="ent0026" data-link-type="dependency" data-source-line="93" id="lnk42"><path d="M1625.36,110.2094 C1772.92,126.4894 2237.67,176.0294 2624,198.1994 C2632.63,198.6994 2928.71,200.2794 2935,206.1994 C2994.82,262.5694 2992.04,321.2794 2948,390.6794 C2943.53,397.7294 2938.53,395.0794 2931,398.6794 C2901.28,412.8794 2873.4135,426.3906 2847.2135,439.1606" fill="none" id="User-to-UC17" style="stroke:#2C3E50;stroke-width:1;"/><polygon fill="#2C3E50" points="2841.82,441.7894,2851.6627,441.4418,2846.3146,439.5987,2848.1577,434.2505,2841.82,441.7894" style="stroke:#2C3E50;stroke-width:1;"/></g><!--link DB to UC01--><g class="link" data-entity-1="ent0004" data-entity-2="ent0007" data-link-type="dependency" data-source-line="99" id="lnk43"><path d="M420.31,105.3194 C347.99,108.8994 217.79,126.8094 149,206.1994 C89.9,274.4094 96.4471,386.2968 102.7071,435.7868" fill="none" id="DB-to-UC01" style="stroke:#2C3E50;stroke-width:1;"/><polygon fill="#2C3E50" points="103.46,441.7394,106.299,432.3086,102.8325,436.7789,98.3622,433.3125,103.46,441.7394" style="stroke:#2C3E50;stroke-width:1;"/><text fill="#000000" font-family="Verdana" font-size="13" lengthAdjust="spacing" textLength="66.5298" x="150" y="285.9463">&#171;persists&#187;</text></g><!--link DB to UC02--><g class="link" data-entity-1="ent0004" data-entity-2="ent0008" data-link-type="dependency" data-source-line="100" id="lnk44"><path d="M420.49,111.8894 C366.75,122.2294 285.14,147.1994 247,206.1994 C198.62,281.0394 238.464,388.7932 260.344,436.6232" fill="none" id="DB-to-UC02" style="stroke:#2C3E50;stroke-width:1;"/><polygon fill="#2C3E50" points="262.84,442.0794,262.7335,432.2311,260.76,437.5325,255.4586,435.559,262.84,442.0794" style="stroke:#2C3E50;stroke-width:1;"/><text fill="#000000" font-family="Verdana" font-size="13" lengthAdjust="spacing" textLength="63.5146" x="248" y="285.9463">&#171;verifies&#187;</text></g><!--link DB to UC07--><g class="link" data-entity-1="ent0004" data-entity-2="ent0014" data-link-type="dependency" data-source-line="101" id="lnk45"><path d="M523.73,108.9594 C742.6,126.0894 1586.66,191.9394 1706,198.1994 C1736.08,199.7894 1948.64,196.0494 1977,206.1994 C2004.17,215.9294 2025.3983,232.3587 2043.3183,249.3687" fill="none" id="DB-to-UC07" style="stroke:#2C3E50;stroke-width:1;"/><polygon fill="#2C3E50" points="2047.67,253.4994,2043.8963,244.4022,2044.0436,250.0571,2038.3887,250.2044,2047.67,253.4994" style="stroke:#2C3E50;stroke-width:1;"/><text fill="#000000" font-family="Verdana" font-size="13" lengthAdjust="spacing" textLength="66.5298" x="1707" y="194.2663">&#171;persists&#187;</text></g><!--link DB to UC05--><g class="link" data-entity-1="ent0004" data-entity-2="ent0012" data-link-type="dependency" data-source-line="102" id="lnk46"><path d="M523.63,111.2294 C661.69,127.9194 1050.92,173.5694 1376,198.1994 C1412.6,200.9794 1505.23,197.9494 1541,206.1994 C1586.85,216.7794 1630.513,236.2073 1664.613,253.5673" fill="none" id="DB-to-UC05" style="stroke:#2C3E50;stroke-width:1;"/><polygon fill="#2C3E50" points="1669.96,256.2894,1663.7543,248.6416,1665.5042,254.021,1660.1248,255.7709,1669.96,256.2894" style="stroke:#2C3E50;stroke-width:1;"/><text fill="#000000" font-family="Verdana" font-size="13" lengthAdjust="spacing" textLength="66.5298" x="1377" y="194.2663">&#171;persists&#187;</text></g><!--link DB to UC12--><g class="link" data-entity-1="ent0004" data-entity-2="ent0020" data-link-type="dependency" data-source-line="103" id="lnk47"><path d="M512.6,151.4694 C540.84,183.8594 573.5757,221.408 597.2257,248.518" fill="none" id="DB-to-UC12" style="stroke:#2C3E50;stroke-width:1;"/><polygon fill="#2C3E50" points="601.17,253.0394,598.2678,243.6278,597.8831,249.2716,592.2393,248.8869,601.17,253.0394" style="stroke:#2C3E50;stroke-width:1;"/><text fill="#000000" font-family="Verdana" font-size="13" lengthAdjust="spacing" textLength="66.5298" x="554.09" y="194.2663">&#171;persists&#187;</text></g><!--link DB to UC14--><g class="link" data-entity-1="ent0004" data-entity-2="ent0022" data-link-type="dependency" data-source-line="104" id="lnk48"><path d="M523.47,108.0994 C614.55,115.3694 808.46,138.1694 956,206.1994 C981.63,218.0194 1002.2543,233.7934 1020.3543,249.9534" fill="none" id="DB-to-UC14" style="stroke:#2C3E50;stroke-width:1;"/><polygon fill="#2C3E50" points="1024.83,253.9494,1020.7804,244.9716,1021.1002,250.6194,1015.4524,250.9392,1024.83,253.9494" style="stroke:#2C3E50;stroke-width:1;"/><text fill="#000000" font-family="Verdana" font-size="13" lengthAdjust="spacing" textLength="66.5298" x="932.67" y="194.2663">&#171;persists&#187;</text></g><!--link WS to UC06--><g class="link" data-entity-1="ent0005" data-entity-2="ent0013" data-link-type="dependency" data-source-line="106" id="lnk49"><path d="M2321.04,151.4694 C2306.64,183.4494 2290.4534,219.4084 2278.2334,246.5484" fill="none" id="WS-to-UC06" style="stroke:#2C3E50;stroke-width:1;"/><polygon fill="#2C3E50" points="2275.77,252.0194,2283.1124,245.4551,2277.8228,247.4602,2275.8177,242.1706,2275.77,252.0194" style="stroke:#2C3E50;stroke-width:1;"/><text fill="#000000" font-family="Verdana" font-size="13" lengthAdjust="spacing" textLength="67.1899" x="2308.23" y="194.2663">&#171;delivers&#187;</text></g><!--link WS to UC09--><g class="link" data-entity-1="ent0005" data-entity-2="ent0016" data-link-type="dependency" data-source-line="107" id="lnk50"><path d="M2372.33,151.3894 C2377.15,160.8994 2381.4,171.0994 2384,181.1994 C2395.49,225.9094 2407.28,217.4694 2356,328.6794 C2337.64,368.4894 2309.9452,403.139 2286.3452,429.109" fill="none" id="WS-to-UC09" style="stroke:#2C3E50;stroke-width:1;"/><polygon fill="#2C3E50" points="2282.31,433.5494,2291.3231,429.5789,2285.6727,429.849,2285.4025,424.1986,2282.31,433.5494" style="stroke:#2C3E50;stroke-width:1;"/><text fill="#000000" font-family="Verdana" font-size="13" lengthAdjust="spacing" textLength="72.2173" x="2394.95" y="285.9463">&#171;confirms&#187;</text></g><!--link WS to UC13--><g class="link" data-entity-1="ent0005" data-entity-2="ent0021" data-link-type="dependency" data-source-line="108" id="lnk51"><path d="M2298.1,106.7294 C2183.55,112.3894 1867.03,133.9094 1615,206.1994 C1571.76,218.6094 1530.5765,237.4664 1497.8065,254.1564" fill="none" id="WS-to-UC13" style="stroke:#2C3E50;stroke-width:1;"/><polygon fill="#2C3E50" points="1492.46,256.8794,1502.2951,256.3592,1496.9154,254.6102,1498.6644,249.2305,1492.46,256.8794" style="stroke:#2C3E50;stroke-width:1;"/><text fill="#000000" font-family="Verdana" font-size="13" lengthAdjust="spacing" textLength="87.4326" x="1712.56" y="194.2663">&#171;broadcasts&#187;</text></g><!--link WS to UC18--><g class="link" data-entity-1="ent0005" data-entity-2="ent0027" data-link-type="dependency" data-source-line="109" id="lnk52"><path d="M2386,114.0494 C2452.81,128.7694 2583.05,160.7394 2687,206.1994 C2715.96,218.8694 2741.41,233.7838 2764.91,248.9638" fill="none" id="WS-to-UC18" style="stroke:#2C3E50;stroke-width:1;"/><polygon fill="#2C3E50" points="2769.95,252.2194,2764.5605,243.976,2765.75,249.5064,2760.2197,250.696,2769.95,252.2194" style="stroke:#2C3E50;stroke-width:1;"/><text fill="#000000" font-family="Verdana" font-size="13" lengthAdjust="spacing" textLength="87.4326" x="2661.14" y="194.2663">&#171;broadcasts&#187;</text></g><!--link UC02 to UC04--><g class="link" data-entity-1="ent0008" data-entity-2="ent0010" data-link-type="dependency" data-source-line="115" id="lnk53"><path d="M291.91,488.6394 C312.94,514.4294 343.8594,552.3285 365.0094,578.2785" fill="none" id="UC02-to-UC04" style="stroke:#2C3E50;stroke-width:1;stroke-dasharray:7,7;"/><polygon fill="#2C3E50" points="368.8,582.9294,366.2147,573.4259,365.6411,579.0536,360.0134,578.4801,368.8,582.9294" style="stroke:#2C3E50;stroke-width:1;"/><text fill="#000000" font-family="Verdana" font-size="13" lengthAdjust="spacing" textLength="63.0068" x="341.62" y="544.6063">&#171;include&#187;</text></g><!--link UC05 to UC04--><g class="link" data-entity-1="ent0012" data-entity-2="ent0010" data-link-type="dependency" data-source-line="116" id="lnk54"><path d="M1703.33,310.5994 C1681.77,363.1694 1627.59,475.1494 1541,523.5394 C1449.94,574.4194 752.6781,596.3698 490.8181,602.8998" fill="none" id="UC05-to-UC04" style="stroke:#2C3E50;stroke-width:1;stroke-dasharray:7,7;"/><polygon fill="#2C3E50" points="484.82,603.0494,493.9169,606.8238,489.8184,602.9247,493.7175,598.8263,484.82,603.0494" style="stroke:#2C3E50;stroke-width:1;"/><text fill="#000000" font-family="Verdana" font-size="13" lengthAdjust="spacing" textLength="63.0068" x="1659.37" y="470.2463">&#171;include&#187;</text></g><!--link UC10 to UC04--><g class="link" data-entity-1="ent0018" data-entity-2="ent0010" data-link-type="dependency" data-source-line="117" id="lnk55"><path d="M842.59,487.7194 C811.3,506.4794 762.64,533.2694 717,548.5394 C638.72,574.7194 551.7101,588.6084 484.4301,596.4084" fill="none" id="UC10-to-UC04" style="stroke:#2C3E50;stroke-width:1;stroke-dasharray:7,7;"/><polygon fill="#2C3E50" points="478.47,597.0994,487.8708,600.0363,483.4367,596.5236,486.9495,592.0895,478.47,597.0994" style="stroke:#2C3E50;stroke-width:1;"/><text fill="#000000" font-family="Verdana" font-size="13" lengthAdjust="spacing" textLength="63.0068" x="758.97" y="544.6063">&#171;include&#187;</text></g><!--link UC11 to UC04--><g class="link" data-entity-1="ent0019" data-entity-2="ent0010" data-link-type="dependency" data-source-line="118" id="lnk56"><path d="M809.28,303.9394 C779.9,325.2194 736.55,360.0894 708,398.6794 C671.83,447.5694 697.56,483.2494 652,523.5394 C603.67,566.2694 539.2418,585.6345 483.1718,595.3545" fill="none" id="UC11-to-UC04" style="stroke:#2C3E50;stroke-width:1;stroke-dasharray:7,7;"/><polygon fill="#2C3E50" points="477.26,596.3794,486.811,598.7833,482.1865,595.5253,485.4445,590.9009,477.26,596.3794" style="stroke:#2C3E50;stroke-width:1;"/><text fill="#000000" font-family="Verdana" font-size="13" lengthAdjust="spacing" textLength="63.0068" x="709" y="470.2463">&#171;include&#187;</text></g><!--link UC12 to UC04--><g class="link" data-entity-1="ent0020" data-entity-2="ent0010" data-link-type="dependency" data-source-line="119" id="lnk57"><path d="M615.83,310.6394 C599.23,358.5494 560.53,456.9794 503,523.5394 C481.42,548.5094 455.7944,566.6482 431.3744,581.1982" fill="none" id="UC12-to-UC04" style="stroke:#2C3E50;stroke-width:1;stroke-dasharray:7,7;"/><polygon fill="#2C3E50" points="426.22,584.2694,435.9991,583.099,430.5154,581.7101,431.9042,576.2264,426.22,584.2694" style="stroke:#2C3E50;stroke-width:1;"/><text fill="#000000" font-family="Verdana" font-size="13" lengthAdjust="spacing" textLength="63.0068" x="580.88" y="470.2463">&#171;include&#187;</text></g><!--link UC16 to UC04--><g class="link" data-entity-1="ent0025" data-entity-2="ent0010" data-link-type="dependency" data-source-line="120" id="lnk58"><path d="M2575.52,312.3294 C2540.34,366.2094 2458,478.0694 2355,523.5394 C2183.43,599.2694 866.74,605.197 491.78,605.347" fill="none" id="UC16-to-UC04" style="stroke:#2C3E50;stroke-width:1;stroke-dasharray:7,7;"/><polygon fill="#2C3E50" points="485.78,605.3494,494.78,609.3494,490.78,605.3494,494.78,601.3494,485.78,605.3494" style="stroke:#2C3E50;stroke-width:1;"/><text fill="#000000" font-family="Verdana" font-size="13" lengthAdjust="spacing" textLength="63.0068" x="2509.37" y="470.2463">&#171;include&#187;</text></g><!--link UC05 to UC09--><g class="link" data-entity-1="ent0012" data-entity-2="ent0016" data-link-type="dependency" data-source-line="122" id="lnk59"><path d="M1761.5,305.6694 C1778.22,313.4594 1797.26,321.8794 1815,328.6794 C1941.7,377.1994 2088.017,419.9005 2175.257,444.0205" fill="none" id="UC05-to-UC09" style="stroke:#2C3E50;stroke-width:1;stroke-dasharray:7,7;"/><polygon fill="#2C3E50" points="2181.04,445.6194,2173.4314,439.3657,2176.2208,444.287,2171.2995,447.0764,2181.04,445.6194" style="stroke:#2C3E50;stroke-width:1;"/><text fill="#000000" font-family="Verdana" font-size="13" lengthAdjust="spacing" textLength="61.1851" x="2018.773" y="371.7463">&#171;extend&#187;</text><text fill="#000000" font-family="Verdana" font-size="13" lengthAdjust="spacing" textLength="110.4111" x="1994.16" y="386.8791">[odbiorca online]</text></g><!--link UC18 to UC17--><g class="link" data-entity-1="ent0027" data-entity-2="ent0026" data-link-type="dependency" data-source-line="123" id="lnk60"><path d="M2792.06,312.3294 C2784.54,325.9194 2776.8,342.5394 2773,358.6794 C2767.06,383.9294 2771.9008,407.1093 2779.4808,428.3193" fill="none" id="UC18-to-UC17" style="stroke:#2C3E50;stroke-width:1;stroke-dasharray:7,7;"/><polygon fill="#2C3E50" points="2781.5,433.9694,2782.2379,424.1482,2779.8173,429.261,2774.7045,426.8405,2781.5,433.9694" style="stroke:#2C3E50;stroke-width:1;"/><text fill="#000000" font-family="Verdana" font-size="13" lengthAdjust="spacing" textLength="61.1851" x="2827.9329" y="371.7463">&#171;extend&#187;</text><text fill="#000000" font-family="Verdana" font-size="13" lengthAdjust="spacing" textLength="169.0508" x="2774" y="386.8791">[przy connect/disconnect]</text></g><!--link UC11 to UC10--><g class="link" data-entity-1="ent0019" data-entity-2="ent0018" data-link-type="dependency" data-source-line="125" id="lnk61"><path d="M845.36,305.0994 C852.07,340.0294 863.7088,400.677 870.4488,435.787" fill="none" id="UC11-to-UC10" style="stroke:#2C3E50;stroke-width:1;stroke-dasharray:7,7;"/><polygon fill="#2C3E50" points="871.58,441.6794,873.8115,432.0867,870.6374,436.769,865.955,433.5949,871.58,441.6794" style="stroke:#2C3E50;stroke-width:1;"/><text fill="#000000" font-family="Verdana" font-size="13" lengthAdjust="spacing" textLength="61.1851" x="874.0843" y="371.7463">&#171;extend&#187;</text><text fill="#000000" font-family="Verdana" font-size="13" lengthAdjust="spacing" textLength="84.0938" x="862.63" y="386.8791">[nowy pok&#243;j]</text></g><!--link UC04 to GMN62--><g class="link" data-entity-1="ent0010" data-entity-2="ent0063" data-link-type="association" data-source-line="128" id="lnk64"><path d="M484.69,602.5994 C775.47,591.9794 1660.85,561.1294 2395.5,551.0394 C2480.38,549.8694 2503.04,535.5394 2586.5,551.0394 C2615.37,556.3994 2645.92,567.3394 2671.38,578.0794" fill="none" id="UC04-GMN62" style="stroke:#2C3E50;stroke-width:1;stroke-dasharray:7,7;"/></g><!--link UC18 to GMN68--><g class="link" data-entity-1="ent0027" data-entity-2="ent0069" data-link-type="association" data-source-line="140" id="lnk70"><path d="M2868.51,308.1094 C2895.16,321.3494 2926.5,338.8694 2952,358.6794 C2981.89,381.8894 3010.62,414.5994 3029.15,437.5294" fill="none" id="UC18-GMN68" style="stroke:#2C3E50;stroke-width:1;stroke-dasharray:7,7;"/></g><?plantuml-src pLZTSjf65BxdAKwTYzeN8GY30K_g6Nu49TZ8vMUeNNAnbjPuBTXbLgkgejEPD3DfNo0NdVOnSjdSnRn8dgH74aeGCkwjRC_Ow-_xzeWzduxEqJVgZYueBEU4yPnZCxuaaYpWXfZsJ0gNMqqn5nAUjUl1znQ3c4h8eVBd58X77R6WMw3hK9CujB6xYrvjbzgjHuX2MbHkICLQjT2eRP6Mk0sPFR9RerrkDnuXRkzMBJSrVNit8gNmub3DOxrSs0AvKEauRRrTqokxhEqWxKAZLApbSeefF8-UMBYSsGGF28O3-FpcFRGOcGNAIxdobyIoFttmOBp-w9kCv7BVmkVtRxBmWrTIxusCmVLLXguf5peD3ZfY_S_3drD-o1bTaRcO2Ozm_-W0Y0CTbpeAdfspsPtgIEB7ck28bIqyp0OATrLZXsBkogrwIo_6YalXg9camn_EKT0WAm8jv9jtaQBLW6UrWgxN2Z5_A4oRgdpNGFgGIWztd0mZycI8ncWtZakLRANumcYDrx-VGdqyqlkZgrwz-QgUfNnlxc8ugBkASkNRnBmd1_1h3l1hKp0mjSs2DkK3Ue-Pbm43RC4LYHABM8fTdFBpAFsCngnYYdKyvHD_liixJl5Ao2DpPeMHbR0fT-7LP1GBIhdVifdqIRVUCYwCzT_DBbmEhYRrKL_FPFARAwAmNFeUKTo7G-rKEthC0-KWNyxwRP0jy1Ynn0BhXCccV1bfwNsSat9AV3BbXdN3FdsG_oCzIKahKuwrdCxc3--iCFOTSx0WC5HBiLe8pu-rbPIsYbeH1MGKjLC-FLWoPqNp-Vpq8DPLKxfQe5CUez9QHJeBgnMHPh0YS5XlzevYTIsh1hmqUiOh7Jg3yQKnoQRrBeKjxYbqfBiK7dt4TLfXoiVA4p9C0om3lhivUQsGOcETQedrsuTtPiItn8uaLQoqubvRfyIf6gOTxxDreCDF5DjQIvKrhRJVricefPGKxqHZwJehS_jGWgTY_8G4ASGYDgXMpgf1ZORUx6E1VFW3kZ0SrKVZOIPTQjnGauSz4J1iEV7PPol_CREUxEPqZZdrfzpzsXnXEnhd9LNgjA3K2IkK0vORvJgOLi7dZDCNulOs-1sBKxLEswrr862rO2IiNflDuF162cAXH7rnHpLhxXZevzWdwQVG2QsH9KT4pU_pvsTHtvDO5ZDwYkFrlrUZdZ7fTtjmNJytEiQati_Kr14E1vjJF4wioedLIM9LIQogsojyC6oljCIgc5Wbuc6ftLubeck9w5ebezaUNWr7-iKLNEkJ_iDVey5rjdfEdEhYkmTEuUNB9PKEbaZdx6mBAeRGprIoMqQJK6M_ghmNqehxeT8kbCDPClPRY5bqpl1Q0kmhL0iXK_1R9XS9I3iEeIzrDWbMqs2cVDJjDy_7BHrUWFuZZgojJ9M9m1dvV7Z-KTeOD-UkHV4Gm_plnRJ24vZs1FP4FEra7vQucCWez1SShwspiod_IM2xAAH987gilyw5heZOMcMNlPGh7z1cd9hgXSMSpP-lSzjNZXzlHyPnA0hQmayVxf4Ql4C36Rom0N4RZSm0FRB-QE7UTr9m9d3kG-rICAuGy_m5cH7maCBfJ6mDtG48dCpMRx6FiLsek-eEUrOS876F76uHlh3RXBmHIed59cODfKCgyKx2faKHx5Fm7nVKSR33oc_kCMh1Tp2IBaM80LqmvU9mWBDMqCTpOX7Fz9yAeWM3N2E-kGBHP7YD1R7NRNwFo78p6OZWBHFOS-oI57wC00cEsGvEXDx7JLFSW7qD-1y0?></g></svg>