<?plantuml 1.2026.2?><svg xmlns="http://www.w3.org/2000/svg" xmlns:xlink="http://www.w3.org/1999/xlink" contentStyleType="text/css" data-diagram-type="SEQUENCE" height="1640px" preserveAspectRatio="none" style="width:1315px;height:1640px;background:#FAFAFA;" version="1.1" viewBox="0 0 1315 1640" width="1315px" zoomAndPan="magnify"><title>Komunikator SR &#8212; Sekwencja: Wysy&#322;anie Wiadomo&#347;ci</title><defs/><g><rect fill="#FAFAFA" height="1640" style="stroke:none;stroke-width:1;" width="1315" x="0" y="0"/><text fill="#000000" font-family="Verdana" font-size="22" font-weight="bold" lengthAdjust="spacing" textLength="669.9258" x="321.2705" y="35.4209">Komunikator SR &#8212; Sekwencja: Wysy&#322;anie Wiadomo&#347;ci</text><g><title>Frontend A</title><rect fill="#FFFFFF" height="603.9922" style="stroke:#000000;stroke-width:1;" width="10" x="265.0107" y="234.6016"/></g><g><title>Frontend A</title><rect fill="#FFFFFF" height="175.9297" style="stroke:#000000;stroke-width:1;" width="10" x="265.0107" y="902.8594"/></g><g><title>Frontend A</title><rect fill="#FFFFFF" height="358.9922" style="stroke:#000000;stroke-width:1;" width="10" x="265.0107" y="1166.1875"/></g><g><title>Flask</title><rect fill="#FFFFFF" height="559.7266" style="stroke:#000000;stroke-width:1;" width="10" x="572.3408" y="278.8672"/></g><g><title>Flask</title><rect fill="#FFFFFF" height="131.6641" style="stroke:#000000;stroke-width:1;" width="10" x="572.3408" y="947.125"/></g><g><title>Flask</title><rect fill="#FFFFFF" height="314.7266" style="stroke:#000000;stroke-width:1;" width="10" x="572.3408" y="1210.4531"/></g><g><title>SessionStore</title><rect fill="#FFFFFF" height="29.1328" style="stroke:#000000;stroke-width:1;" width="10" x="829.9644" y="308"/></g><g><title>SessionStore</title><rect fill="#FFFFFF" height="29.1328" style="stroke:#000000;stroke-width:1;" width="10" x="829.9644" y="454.7969"/></g><g><title>SessionStore</title><rect fill="#FFFFFF" height="29.1328" style="stroke:#000000;stroke-width:1;" width="10" x="829.9644" y="976.2578"/></g><g><title>SessionStore</title><rect fill="#FFFFFF" height="29.1328" style="stroke:#000000;stroke-width:1;" width="10" x="829.9644" y="1239.5859"/></g><g><title>PostgreSQL</title><rect fill="#FFFFFF" height="29.1328" style="stroke:#000000;stroke-width:1;" width="10" x="945.7041" y="396.5313"/></g><g><title>PostgreSQL</title><rect fill="#FFFFFF" height="29.1328" style="stroke:#000000;stroke-width:1;" width="10" x="945.7041" y="640.8594"/></g><g><title>PostgreSQL</title><rect fill="#FFFFFF" height="29.1328" style="stroke:#000000;stroke-width:1;" width="10" x="945.7041" y="1312.9844"/></g><g><title>Frontend B</title><rect fill="#FFFFFF" height="44.2656" style="stroke:#000000;stroke-width:1;" width="10" x="1054.6626" y="552.3281"/></g><g><title>Frontend B</title><rect fill="#FFFFFF" height="29.1328" style="stroke:#000000;stroke-width:1;" width="10" x="1054.6626" y="1049.6563"/></g><g><title>Frontend B</title><rect fill="#FFFFFF" height="44.2656" style="stroke:#000000;stroke-width:1;" width="10" x="1054.6626" y="1480.9141"/></g><rect fill="#FFFFFF" height="332.6641" style="stroke:#000000;stroke-width:1;" width="1283.4668" x="15" y="498.9297"/><rect fill="#FFFFFF" height="80.2031" style="stroke:none;stroke-width:1;" width="1283.4668" x="15" y="751.3906"/><g class="participant-lifeline" data-entity-uid="part1" data-qualified-name="UA" id="part1-lifeline"><g><title>U.ytkownik A</title><rect fill="#000000" fill-opacity="0.00000" height="1397.9766" width="8" x="71.1953" y="145.2031"/><line style="stroke:#85929E;stroke-width:1;stroke-dasharray:5,5;" x1="75" x2="75" y1="145.2031" y2="1543.1797"/></g></g><g class="participant-lifeline" data-entity-uid="part2" data-qualified-name="FEA" id="part2-lifeline"><g><title>Frontend A</title><rect fill="#000000" fill-opacity="0.00000" height="1397.9766" width="8" x="266.0107" y="145.2031"/><line style="stroke:#85929E;stroke-width:1;stroke-dasharray:5,5;" x1="269.4424" x2="269.4424" y1="145.2031" y2="1543.1797"/></g></g><g class="participant-lifeline" data-entity-uid="part3" data-qualified-name="BE" id="part3-lifeline"><g><title>Flask</title><rect fill="#000000" fill-opacity="0.00000" height="1397.9766" width="8" x="573.3408" y="145.2031"/><line style="stroke:#85929E;stroke-width:1;stroke-dasharray:5,5;" x1="577.1602" x2="577.1602" y1="145.2031" y2="1543.1797"/></g></g><g class="participant-lifeline" data-entity-uid="part4" data-qualified-name="SS" id="part4-lifeline"><g><title>SessionStore</title><rect fill="#000000" fill-opacity="0.00000" height="1397.9766" width="8" x="830.9644" y="145.2031"/><line style="stroke:#85929E;stroke-width:1;stroke-dasharray:5,5;" x1="834.6011" x2="834.6011" y1="145.2031" y2="1543.1797"/></g></g><g class="participant-lifeline" data-entity-uid="part5" data-qualified-name="DB" id="part5-lifeline"><g><title>PostgreSQL</title><rect fill="#000000" fill-opacity="0.00000" height="1397.9766" width="8" x="946.7041" y="145.2031"/><line style="stroke:#85929E;stroke-width:1;stroke-dasharray:5,5;" x1="950.3276" x2="950.3276" y1="145.2031" y2="1543.1797"/></g></g><g class="participant-lifeline" data-entity-uid="part6" data-qualified-name="FEB" id="part6-lifeline"><g><title>Frontend B</title><rect fill="#000000" fill-opacity="0.00000" height="1397.9766" width="8" x="1055.6626" y="145.2031"/><line style="stroke:#85929E;stroke-width:1;stroke-dasharray:5,5;" x1="1059.0806" x2="1059.0806" y1="145.2031" y2="1543.1797"/></g></g><g class="participant-lifeline" data-entity-uid="part7" data-qualified-name="UB" id="part7-lifeline"><g><title>U.ytkownik B</title><rect fill="#000000" fill-opacity="0.00000" height="1397.9766" width="8" x="1234.2578" y="145.2031"/><line style="stroke:#85929E;stroke-width:1;stroke-dasharray:5,5;" x1="1238.0488" x2="1238.0488" y1="145.2031" y2="1543.1797"/></g></g><g class="participant participant-head" data-entity-uid="part1" data-qualified-name="UA" id="part1-head"><text fill="#000000" font-family="Verdana" font-size="14" lengthAdjust="spacing" textLength="94.3906" x="25" y="125.6045">U&#380;ytkownik A</text><text fill="#000000" font-family="Verdana" font-size="14" lengthAdjust="spacing" textLength="73.5684" x="35.4111" y="141.9014">(nadawca)</text><ellipse cx="75.1953" cy="60.6094" fill="#FFFFFF" rx="8" ry="8" style="stroke:#000000;stroke-width:1;"/><path d="M75.1953,68.6094 L75.1953,95.6094 M62.1953,76.6094 L88.1953,76.6094 M75.1953,95.6094 L62.1953,110.6094 M75.1953,95.6094 L88.1953,110.6094" fill="none" style="stroke:#000000;stroke-width:1;"/></g><g class="participant participant-tail" data-entity-uid="part1" data-qualified-name="UA" id="part1-tail"><text fill="#000000" font-family="Verdana" font-size="14" lengthAdjust="spacing" textLength="94.3906" x="25" y="1555.1748">U&#380;ytkownik A</text><text fill="#000000" font-family="Verdana" font-size="14" lengthAdjust="spacing" textLength="73.5684" x="35.4111" y="1571.4717">(nadawca)</text><ellipse cx="75.1953" cy="1583.7734" fill="#FFFFFF" rx="8" ry="8" style="stroke:#000000;stroke-width:1;"/><path d="M75.1953,1591.7734 L75.1953,1618.7734 M62.1953,1599.7734 L88.1953,1599.7734 M75.1953,1618.7734 L62.1953,1633.7734 M75.1953,1618.7734 L88.1953,1633.7734" fill="none" style="stroke:#000000;stroke-width:1;"/></g><g class="participant participant-head" data-entity-uid="part2" data-qualified-name="FEA" id="part2-head"><rect fill="#EBF5FB" height="30.2969" rx="2.5" ry="2.5" style="stroke:#2980B9;stroke-width:1;" width="91.1367" x="224.4424" y="113.9063"/><text fill="#000000" font-family="Verdana" font-size="14" lengthAdjust="spacing" textLength="77.1367" x="231.4424" y="133.9014">Frontend A</text></g><g class="participant participant-tail" data-entity-uid="part2" data-qualified-name="FEA" id="part2-tail"><rect fill="#EBF5FB" height="30.2969" rx="2.5" ry="2.5" style="stroke:#2980B9;stroke-width:1;" width="91.1367" x="224.4424" y="1542.1797"/><text fill="#000000" font-family="Verdana" font-size="14" lengthAdjust="spacing" textLength="77.1367" x="231.4424" y="1562.1748">Frontend A</text></g><g class="participant participant-head" data-entity-uid="part3" data-qualified-name="BE" id="part3-head"><rect fill="#EBF5FB" height="46.5938" rx="2.5" ry="2.5" style="stroke:#2980B9;stroke-width:1;" width="74.3613" x="540.1602" y="97.6094"/><text fill="#000000" font-family="Verdana" font-size="14" lengthAdjust="spacing" textLength="35.9229" x="559.3794" y="117.6045">Flask</text><text fill="#000000" font-family="Verdana" font-size="14" lengthAdjust="spacing" textLength="60.3613" x="547.1602" y="133.9014">Backend</text></g><g class="participant participant-tail" data-entity-uid="part3" data-qualified-name="BE" id="part3-tail"><rect fill="#EBF5FB" height="46.5938" rx="2.5" ry="2.5" style="stroke:#2980B9;stroke-width:1;" width="74.3613" x="540.1602" y="1542.1797"/><text fill="#000000" font-family="Verdana" font-size="14" lengthAdjust="spacing" textLength="35.9229" x="559.3794" y="1562.1748">Flask</text><text fill="#000000" font-family="Verdana" font-size="14" lengthAdjust="spacing" textLength="60.3613" x="547.1602" y="1578.4717">Backend</text></g><g class="participant participant-head" data-entity-uid="part4" data-qualified-name="SS" id="part4-head"><rect fill="#EBF5FB" height="30.2969" rx="2.5" ry="2.5" style="stroke:#2980B9;stroke-width:1;" width="104.7266" x="782.6011" y="113.9063"/><text fill="#000000" font-family="Verdana" font-size="14" lengthAdjust="spacing" textLength="90.7266" x="789.6011" y="133.9014">SessionStore</text></g><g class="participant participant-tail" data-entity-uid="part4" data-qualified-name="SS" id="part4-tail"><rect fill="#EBF5FB" height="30.2969" rx="2.5" ry="2.5" style="stroke:#2980B9;stroke-width:1;" width="104.7266" x="782.6011" y="1542.1797"/><text fill="#000000" font-family="Verdana" font-size="14" lengthAdjust="spacing" textLength="90.7266" x="789.6011" y="1562.1748">SessionStore</text></g><g class="participant participant-head" data-entity-uid="part5" data-qualified-name="DB" id="part5-head"><text fill="#000000" font-family="Verdana" font-size="14" lengthAdjust="spacing" textLength="80.7529" x="907.3276" y="141.9014">PostgreSQL</text><path d="M932.7041,92.9063 C932.7041,82.9063 950.7041,82.9063 950.7041,82.9063 C950.7041,82.9063 968.7041,82.9063 968.7041,92.9063 L968.7041,118.9063 C968.7041,128.9063 950.7041,128.9063 950.7041,128.9063 C950.7041,128.9063 932.7041,128.9063 932.7041,118.9063 L932.7041,92.9063" fill="#FFFFFF" style="stroke:#000000;stroke-width:1;"/><path d="M932.7041,92.9063 C932.7041,102.9063 950.7041,102.9063 950.7041,102.9063 C950.7041,102.9063 968.7041,102.9063 968.7041,92.9063" fill="none" style="stroke:#000000;stroke-width:1;"/></g><g class="participant participant-tail" data-entity-uid="part5" data-qualified-name="DB" id="part5-tail"><text fill="#000000" font-family="Verdana" font-size="14" lengthAdjust="spacing" textLength="80.7529" x="907.3276" y="1555.1748">PostgreSQL</text><path d="M932.7041,1568.4766 C932.7041,1558.4766 950.7041,1558.4766 950.7041,1558.4766 C950.7041,1558.4766 968.7041,1558.4766 968.7041,1568.4766 L968.7041,1594.4766 C968.7041,1604.4766 950.7041,1604.4766 950.7041,1604.4766 C950.7041,1604.4766 932.7041,1604.4766 932.7041,1594.4766 L932.7041,1568.4766" fill="#FFFFFF" style="stroke:#000000;stroke-width:1;"/><path d="M932.7041,1568.4766 C932.7041,1578.4766 950.7041,1578.4766 950.7041,1578.4766 C950.7041,1578.4766 968.7041,1578.4766 968.7041,1568.4766" fill="none" style="stroke:#000000;stroke-width:1;"/></g><g class="participant participant-head" data-entity-uid="part6" data-qualified-name="FEB" id="part6-head"><rect fill="#EBF5FB" height="30.2969" rx="2.5" ry="2.5" style="stroke:#2980B9;stroke-width:1;" width="91.1641" x="1014.0806" y="113.9063"/><text fill="#000000" font-family="Verdana" font-size="14" lengthAdjust="spacing" textLength="77.1641" x="1021.0806" y="133.9014">Frontend B</text></g><g class="participant participant-tail" data-entity-uid="part6" data-qualified-name="FEB" id="part6-tail"><rect fill="#EBF5FB" height="30.2969" rx="2.5" ry="2.5" style="stroke:#2980B9;stroke-width:1;" width="91.1641" x="1014.0806" y="1542.1797"/><text fill="#000000" font-family="Verdana" font-size="14" lengthAdjust="spacing" textLength="77.1641" x="1021.0806" y="1562.1748">Frontend B</text></g><g class="participant participant-head" data-entity-uid="part7" data-qualified-name="UB" id="part7-head"><text fill="#000000" font-family="Verdana" font-size="14" lengthAdjust="spacing" textLength="94.418" x="1188.0488" y="125.6045">U&#380;ytkownik B</text><text fill="#000000" font-family="Verdana" font-size="14" lengthAdjust="spacing" textLength="71.75" x="1199.3828" y="141.9014">(odbiorca)</text><ellipse cx="1238.2578" cy="60.6094" fill="#FFFFFF" rx="8" ry="8" style="stroke:#000000;stroke-width:1;"/><path d="M1238.2578,68.6094 L1238.2578,95.6094 M1225.2578,76.6094 L1251.2578,76.6094 M1238.2578,95.6094 L1225.2578,110.6094 M1238.2578,95.6094 L1251.2578,110.6094" fill="none" style="stroke:#000000;stroke-width:1;"/></g><g class="participant participant-tail" data-entity-uid="part7" data-qualified-name="UB" id="part7-tail"><text fill="#000000" font-family="Verdana" font-size="14" lengthAdjust="spacing" textLength="94.418" x="1188.0488" y="1555.1748">U&#380;ytkownik B</text><text fill="#000000" font-family="Verdana" font-size="14" lengthAdjust="spacing" textLength="71.75" x="1199.3828" y="1571.4717">(odbiorca)</text><ellipse cx="1238.2578" cy="1583.7734" fill="#FFFFFF" rx="8" ry="8" style="stroke:#000000;stroke-width:1;"/><path d="M1238.2578,1591.7734 L1238.2578,1618.7734 M1225.2578,1599.7734 L1251.2578,1599.7734 M1238.2578,1618.7734 L1225.2578,1633.7734 M1238.2578,1618.7734 L1251.2578,1633.7734" fill="none" style="stroke:#000000;stroke-width:1;"/></g><g><title>Frontend A</title><rect fill="#FFFFFF" height="603.9922" style="stroke:#000000;stroke-width:1;" width="10" x="265.0107" y="234.6016"/></g><g><title>Frontend A</title><rect fill="#FFFFFF" height="175.9297" style="stroke:#000000;stroke-width:1;" width="10" x="265.0107" y="902.8594"/></g><g><title>Frontend A</title><rect fill="#FFFFFF" height="358.9922" style="stroke:#000000;stroke-width:1;" width="10" x="265.0107" y="1166.1875"/></g><g><title>Flask</title><rect fill="#FFFFFF" height="559.7266" style="stroke:#000000;stroke-width:1;" width="10" x="572.3408" y="278.8672"/></g><g><title>Flask</title><rect fill="#FFFFFF" height="131.6641" style="stroke:#000000;stroke-width:1;" width="10" x="572.3408" y="947.125"/></g><g><title>Flask</title><rect fill="#FFFFFF" height="314.7266" style="stroke:#000000;stroke-width:1;" width="10" x="572.3408" y="1210.4531"/></g><g><title>SessionStore</title><rect fill="#FFFFFF" height="29.1328" style="stroke:#000000;stroke-width:1;" width="10" x="829.9644" y="308"/></g><g><title>SessionStore</title><rect fill="#FFFFFF" height="29.1328" style="stroke:#000000;stroke-width:1;" width="10" x="829.9644" y="454.7969"/></g><g><title>SessionStore</title><rect fill="#FFFFFF" height="29.1328" style="stroke:#000000;stroke-width:1;" width="10" x="829.9644" y="976.2578"/></g><g><title>SessionStore</title><rect fill="#FFFFFF" height="29.1328" style="stroke:#000000;stroke-width:1;" width="10" x="829.9644" y="1239.5859"/></g><g><title>PostgreSQL</title><rect fill="#FFFFFF" height="29.1328" style="stroke:#000000;stroke-width:1;" width="10" x="945.7041" y="396.5313"/></g><g><title>PostgreSQL</title><rect fill="#FFFFFF" height="29.1328" style="stroke:#000000;stroke-width:1;" width="10" x="945.7041" y="640.8594"/></g><g><title>PostgreSQL</title><rect fill="#FFFFFF" height="29.1328" style="stroke:#000000;stroke-width:1;" width="10" x="945.7041" y="1312.9844"/></g><g><title>Frontend B</title><rect fill="#FFFFFF" height="44.2656" style="stroke:#000000;stroke-width:1;" width="10" x="1054.6626" y="552.3281"/></g><g><title>Frontend B</title><rect fill="#FFFFFF" height="29.1328" style="stroke:#000000;stroke-width:1;" width="10" x="1054.6626" y="1049.6563"/></g><g><title>Frontend B</title><rect fill="#FFFFFF" height="44.2656" style="stroke:#000000;stroke-width:1;" width="10" x="1054.6626" y="1480.9141"/></g><rect fill="#FFFFFF" height="3" style="stroke:#FFFFFF;stroke-width:1;" width="1303.4668" x="5" y="175.7695"/><line style="stroke:#000000;stroke-width:0.5;" x1="5" x2="1308.4668" y1="175.7695" y2="175.7695"/><line style="stroke:#000000;stroke-width:0.5;" x1="5" x2="1308.4668" y1="178.7695" y2="178.7695"/><rect fill="#FFFFFF" height="23.1328" style="stroke:#000000;stroke-width:1;" width="253.8208" x="529.823" y="165.2031"/><text fill="#000000" font-family="Verdana" font-size="13" font-weight="bold" lengthAdjust="spacing" textLength="235.2949" x="535.823" y="181.27">Wys&#322;anie wiadomo&#347;ci prywatnej</text><g class="message" data-entity-1="part1" data-entity-2="part2" id="msg1"><polygon fill="#2C3E50" points="253.0107,230.6016,263.0107,234.6016,253.0107,238.6016,257.0107,234.6016" style="stroke:#2C3E50;stroke-width:1;"/><line style="stroke:#2C3E50;stroke-width:1;" x1="75.1953" x2="259.0107" y1="234.6016" y2="234.6016"/><text fill="#000000" font-family="Verdana" font-size="13" lengthAdjust="spacing" textLength="87.8325" x="82.1953" y="214.4028">Wpisuje tre&#347;&#263;</text><text fill="#000000" font-family="Verdana" font-size="13" lengthAdjust="spacing" textLength="92.2378" x="82.1953" y="229.5356">i klika "Wy&#347;lij"</text></g><g class="message" data-entity-1="part2" data-entity-2="part3" id="msg2"><polygon fill="#2C3E50" points="560.3408,274.8672,570.3408,278.8672,560.3408,282.8672,564.3408,278.8672" style="stroke:#2C3E50;stroke-width:1;"/><line style="stroke:#2C3E50;stroke-width:1;" x1="275.0107" x2="566.3408" y1="278.8672" y2="278.8672"/><text fill="#000000" font-family="Verdana" font-size="13" lengthAdjust="spacing" textLength="174.0083" x="282.0107" y="258.6685">WS emit: private_message</text><text fill="#000000" font-family="Verdana" font-size="13" lengthAdjust="spacing" textLength="248.4092" x="282.0107" y="273.8013">{ to_user_id: B_id, content: "Cze&#347;&#263;!" }</text></g><g class="message" data-entity-1="part3" data-entity-2="part4" id="msg3"><polygon fill="#2C3E50" points="817.9644,304,827.9644,308,817.9644,312,821.9644,308" style="stroke:#2C3E50;stroke-width:1;"/><line style="stroke:#2C3E50;stroke-width:1;" x1="582.3408" x2="823.9644" y1="308" y2="308"/><text fill="#000000" font-family="Verdana" font-size="13" lengthAdjust="spacing" textLength="228.6235" x="589.3408" y="302.9341">get_user_id_by_socket(request.sid)</text></g><g class="message" data-entity-1="part4" data-entity-2="part3" id="msg4"><polygon fill="#2C3E50" points="593.3408,333.1328,583.3408,337.1328,593.3408,341.1328,589.3408,337.1328" style="stroke:#2C3E50;stroke-width:1;"/><line style="stroke:#2C3E50;stroke-width:1;stroke-dasharray:2,2;" x1="587.3408" x2="833.9644" y1="337.1328" y2="337.1328"/><text fill="#000000" font-family="Verdana" font-size="13" lengthAdjust="spacing" textLength="109.3828" x="599.3408" y="332.0669">sender_id = A_id</text></g><g class="message" data-entity-1="part3" data-entity-2="part5" id="msg5"><polygon fill="#2C3E50" points="933.7041,392.5313,943.7041,396.5313,933.7041,400.5313,937.7041,396.5313" style="stroke:#2C3E50;stroke-width:1;"/><line style="stroke:#2C3E50;stroke-width:1;" x1="582.3408" x2="939.7041" y1="396.5313" y2="396.5313"/><text fill="#000000" font-family="Verdana" font-size="13" lengthAdjust="spacing" textLength="152.1914" x="589.3408" y="361.1997">INSERT INTO messages</text><text fill="#000000" font-family="Verdana" font-size="13" lengthAdjust="spacing" textLength="195.6982" x="589.3408" y="376.3325">(sender_id=A, recipient_id=B,</text><text fill="#000000" font-family="Verdana" font-size="13" lengthAdjust="spacing" textLength="168.5874" x="589.3408" y="391.4653">content, delivered=False)</text></g><g class="message" data-entity-1="part5" data-entity-2="part3" id="msg6"><polygon fill="#2C3E50" points="593.3408,421.6641,583.3408,425.6641,593.3408,429.6641,589.3408,425.6641" style="stroke:#2C3E50;stroke-width:1;"/><line style="stroke:#2C3E50;stroke-width:1;stroke-dasharray:2,2;" x1="587.3408" x2="949.7041" y1="425.6641" y2="425.6641"/><text fill="#000000" font-family="Verdana" font-size="13" lengthAdjust="spacing" textLength="144.9424" x="599.3408" y="420.5981">message { id: 42, ... }</text></g><g class="message" data-entity-1="part3" data-entity-2="part4" id="msg7"><polygon fill="#2C3E50" points="817.9644,450.7969,827.9644,454.7969,817.9644,458.7969,821.9644,454.7969" style="stroke:#2C3E50;stroke-width:1;"/><line style="stroke:#2C3E50;stroke-width:1;" x1="582.3408" x2="823.9644" y1="454.7969" y2="454.7969"/><text fill="#000000" font-family="Verdana" font-size="13" lengthAdjust="spacing" textLength="132.9072" x="589.3408" y="449.731">get_socket_ids(B_id)</text></g><g class="message" data-entity-1="part4" data-entity-2="part3" id="msg8"><polygon fill="#2C3E50" points="593.3408,479.9297,583.3408,483.9297,593.3408,487.9297,589.3408,483.9297" style="stroke:#2C3E50;stroke-width:1;"/><line style="stroke:#2C3E50;stroke-width:1;stroke-dasharray:2,2;" x1="587.3408" x2="833.9644" y1="483.9297" y2="483.9297"/><text fill="#000000" font-family="Verdana" font-size="13" lengthAdjust="spacing" textLength="170.1807" x="599.3408" y="478.8638">{socket_B_1, socket_B_2}</text></g><path d="M15,498.9297 L79.4429,498.9297 L79.4429,506.0625 L69.4429,516.0625 L15,516.0625 L15,498.9297" fill="#F2F3F4" style="stroke:#000000;stroke-width:1;"/><rect fill="none" height="332.6641" style="stroke:#000000;stroke-width:1;" width="1283.4668" x="15" y="498.9297"/><text fill="#000000" font-family="Verdana" font-size="13" font-weight="bold" lengthAdjust="spacing" textLength="19.4429" x="30" y="511.9966">alt</text><text fill="#000000" font-family="Verdana" font-size="11" font-weight="bold" lengthAdjust="spacing" textLength="162.8999" x="94.4429" y="511.1401">[U&#380;ytkownik B jest online]</text><g class="message" data-entity-1="part3" data-entity-2="part6" id="msg9"><line style="stroke:#2C3E50;stroke-width:1;" x1="1052.6626" x2="1042.6626" y1="552.3281" y2="548.3281"/><line style="stroke:#2C3E50;stroke-width:1;" x1="1052.6626" x2="1042.6626" y1="552.3281" y2="556.3281"/><line style="stroke:#2C3E50;stroke-width:1;" x1="582.3408" x2="1053.6626" y1="552.3281" y2="552.3281"/><text fill="#000000" font-family="Verdana" font-size="13" lengthAdjust="spacing" textLength="121.5449" x="589.3408" y="532.1294">WS emit: message</text><text fill="#000000" font-family="Verdana" font-size="13" lengthAdjust="spacing" textLength="216.9121" x="589.3408" y="547.2622">{ id:42, sender_id:A, content:... }</text></g><g class="message" data-entity-1="part6" data-entity-2="part7" id="msg10"><polygon fill="#2C3E50" points="1226.2578,592.5938,1236.2578,596.5938,1226.2578,600.5938,1230.2578,596.5938" style="stroke:#2C3E50;stroke-width:1;"/><line style="stroke:#2C3E50;stroke-width:1;stroke-dasharray:2,2;" x1="1059.6626" x2="1232.2578" y1="596.5938" y2="596.5938"/><text fill="#000000" font-family="Verdana" font-size="13" lengthAdjust="spacing" textLength="143.3237" x="1066.6626" y="576.395">Wy&#347;wietla wiadomo&#347;&#263;</text><text fill="#000000" font-family="Verdana" font-size="13" lengthAdjust="spacing" textLength="89.502" x="1066.6626" y="591.5278">w oknie czatu</text></g><g class="message" data-entity-1="part3" data-entity-2="part5" id="msg11"><polygon fill="#2C3E50" points="933.7041,636.8594,943.7041,640.8594,933.7041,644.8594,937.7041,640.8594" style="stroke:#2C3E50;stroke-width:1;"/><line style="stroke:#2C3E50;stroke-width:1;" x1="582.3408" x2="939.7041" y1="640.8594" y2="640.8594"/><text fill="#000000" font-family="Verdana" font-size="13" lengthAdjust="spacing" textLength="121.7417" x="589.3408" y="620.6606">UPDATE messages</text><text fill="#000000" font-family="Verdana" font-size="13" lengthAdjust="spacing" textLength="225.3672" x="589.3408" y="635.7935">SET delivered=True WHERE id=42</text></g><g class="message" data-entity-1="part5" data-entity-2="part3" id="msg12"><polygon fill="#2C3E50" points="593.3408,665.9922,583.3408,669.9922,593.3408,673.9922,589.3408,669.9922" style="stroke:#2C3E50;stroke-width:1;"/><line style="stroke:#2C3E50;stroke-width:1;stroke-dasharray:2,2;" x1="587.3408" x2="949.7041" y1="669.9922" y2="669.9922"/><text fill="#000000" font-family="Verdana" font-size="13" lengthAdjust="spacing" textLength="18.7573" x="599.3408" y="664.9263">OK</text></g><g class="message" data-entity-1="part3" data-entity-2="part2" id="msg13"><line style="stroke:#2C3E50;stroke-width:1;" x1="276.0107" x2="286.0107" y1="714.2578" y2="710.2578"/><line style="stroke:#2C3E50;stroke-width:1;" x1="276.0107" x2="286.0107" y1="714.2578" y2="718.2578"/><line style="stroke:#2C3E50;stroke-width:1;" x1="275.0107" x2="571.3408" y1="714.2578" y2="714.2578"/><text fill="#000000" font-family="Verdana" font-size="13" lengthAdjust="spacing" textLength="85.7632" x="292.0107" y="694.0591">WS emit: ack</text><text fill="#000000" font-family="Verdana" font-size="13" lengthAdjust="spacing" textLength="126.6484" x="292.0107" y="709.1919">{ message_id: 42 }</text></g><g class="message" data-entity-1="part2" data-entity-2="part1" id="msg14"><polygon fill="#2C3E50" points="86.1953,739.3906,76.1953,743.3906,86.1953,747.3906,82.1953,743.3906" style="stroke:#2C3E50;stroke-width:1;"/><line style="stroke:#2C3E50;stroke-width:1;stroke-dasharray:2,2;" x1="80.1953" x2="264.0107" y1="743.3906" y2="743.3906"/><text fill="#000000" font-family="Verdana" font-size="13" lengthAdjust="spacing" textLength="146.1865" x="92.1953" y="738.3247">Ikona "dostarczone" &#10003;</text></g><line style="stroke:#000000;stroke-width:1;stroke-dasharray:2,2;" x1="15" x2="1298.4668" y1="752.3906" y2="752.3906"/><text fill="#000000" font-family="Verdana" font-size="11" font-weight="bold" lengthAdjust="spacing" textLength="164.6401" x="20" y="762.6011">[U&#380;ytkownik B jest offline]</text><path d="M437,771.1953 L437,826.1953 L716,826.1953 L716,781.1953 L706,771.1953 L437,771.1953" fill="#FEF9E7" style="stroke:#F0B429;stroke-width:1;"/><path d="M706,771.1953 L706,781.1953 L716,781.1953 L706,771.1953" fill="#FEF9E7" style="stroke:#F0B429;stroke-width:1;"/><text fill="#000000" font-family="Verdana" font-size="13" lengthAdjust="spacing" textLength="174.8525" x="443" y="788.2622">Message.delivered = False</text><text fill="#000000" font-family="Verdana" font-size="13" lengthAdjust="spacing" textLength="100.2549" x="443" y="803.395">pozostaje w DB</text><text fill="#000000" font-family="Verdana" font-size="13" lengthAdjust="spacing" textLength="258.0894" x="443" y="818.5278">(opcjonalne dostarczenie po reconnect)</text><rect fill="#FFFFFF" height="3" style="stroke:#FFFFFF;stroke-width:1;" width="1303.4668" x="5" y="859.1602"/><line style="stroke:#000000;stroke-width:0.5;" x1="5" x2="1308.4668" y1="859.1602" y2="859.1602"/><line style="stroke:#000000;stroke-width:0.5;" x1="5" x2="1308.4668" y1="862.1602" y2="862.1602"/><rect fill="#FFFFFF" height="23.1328" style="stroke:#000000;stroke-width:1;" width="200.5767" x="556.4451" y="848.5938"/><text fill="#000000" font-family="Verdana" font-size="13" font-weight="bold" lengthAdjust="spacing" textLength="182.0508" x="562.4451" y="864.6606">Powiadomienie "pisze..."</text><g class="message" data-entity-1="part1" data-entity-2="part2" id="msg15"><polygon fill="#2C3E50" points="253.0107,898.8594,263.0107,902.8594,253.0107,906.8594,257.0107,902.8594" style="stroke:#2C3E50;stroke-width:1;"/><line style="stroke:#2C3E50;stroke-width:1;" x1="75.1953" x2="259.0107" y1="902.8594" y2="902.8594"/><text fill="#000000" font-family="Verdana" font-size="13" lengthAdjust="spacing" textLength="170.8154" x="82.1953" y="897.7935">Zaczyna pisa&#263; (keystroke)</text></g><g class="message" data-entity-1="part2" data-entity-2="part3" id="msg16"><polygon fill="#2C3E50" points="560.3408,943.125,570.3408,947.125,560.3408,951.125,564.3408,947.125" style="stroke:#2C3E50;stroke-width:1;"/><line style="stroke:#2C3E50;stroke-width:1;" x1="275.0107" x2="566.3408" y1="947.125" y2="947.125"/><text fill="#000000" font-family="Verdana" font-size="13" lengthAdjust="spacing" textLength="104.2666" x="282.0107" y="926.9263">WS emit: typing</text><text fill="#000000" font-family="Verdana" font-size="13" lengthAdjust="spacing" textLength="126.8706" x="282.0107" y="942.0591">{ to_user_id: B_id }</text></g><g class="message" data-entity-1="part3" data-entity-2="part4" id="msg17"><polygon fill="#2C3E50" points="817.9644,972.2578,827.9644,976.2578,817.9644,980.2578,821.9644,976.2578" style="stroke:#2C3E50;stroke-width:1;"/><line style="stroke:#2C3E50;stroke-width:1;" x1="582.3408" x2="823.9644" y1="976.2578" y2="976.2578"/><text fill="#000000" font-family="Verdana" font-size="13" lengthAdjust="spacing" textLength="132.9072" x="589.3408" y="971.1919">get_socket_ids(B_id)</text></g><g class="message" data-entity-1="part4" data-entity-2="part3" id="msg18"><polygon fill="#2C3E50" points="593.3408,1001.3906,583.3408,1005.3906,593.3408,1009.3906,589.3408,1005.3906" style="stroke:#2C3E50;stroke-width:1;"/><line style="stroke:#2C3E50;stroke-width:1;stroke-dasharray:2,2;" x1="587.3408" x2="833.9644" y1="1005.3906" y2="1005.3906"/><text fill="#000000" font-family="Verdana" font-size="13" lengthAdjust="spacing" textLength="74.458" x="599.3408" y="1000.3247">{socket_B}</text></g><g class="message" data-entity-1="part3" data-entity-2="part6" id="msg19"><line style="stroke:#2C3E50;stroke-width:1;" x1="1052.6626" x2="1042.6626" y1="1049.6563" y2="1045.6563"/><line style="stroke:#2C3E50;stroke-width:1;" x1="1052.6626" x2="1042.6626" y1="1049.6563" y2="1053.6563"/><line style="stroke:#2C3E50;stroke-width:1;" x1="582.3408" x2="1053.6626" y1="1049.6563" y2="1049.6563"/><text fill="#000000" font-family="Verdana" font-size="13" lengthAdjust="spacing" textLength="104.2666" x="589.3408" y="1029.4575">WS emit: typing</text><text fill="#000000" font-family="Verdana" font-size="13" lengthAdjust="spacing" textLength="144.333" x="589.3408" y="1044.5903">{ from_user_id: A_id }</text></g><g class="message" data-entity-1="part6" data-entity-2="part7" id="msg20"><polygon fill="#2C3E50" points="1226.2578,1074.7891,1236.2578,1078.7891,1226.2578,1082.7891,1230.2578,1078.7891" style="stroke:#2C3E50;stroke-width:1;"/><line style="stroke:#2C3E50;stroke-width:1;stroke-dasharray:2,2;" x1="1059.6626" x2="1232.2578" y1="1078.7891" y2="1078.7891"/><text fill="#000000" font-family="Verdana" font-size="13" lengthAdjust="spacing" textLength="149.5952" x="1066.6626" y="1073.7231">"U&#380;ytkownik A pisze..."</text></g><rect fill="#FFFFFF" height="3" style="stroke:#FFFFFF;stroke-width:1;" width="1303.4668" x="5" y="1107.3555"/><line style="stroke:#000000;stroke-width:0.5;" x1="5" x2="1308.4668" y1="1107.3555" y2="1107.3555"/><line style="stroke:#000000;stroke-width:0.5;" x1="5" x2="1308.4668" y1="1110.3555" y2="1110.3555"/><rect fill="#FFFFFF" height="23.1328" style="stroke:#000000;stroke-width:1;" width="339.1904" x="487.1382" y="1096.7891"/><text fill="#000000" font-family="Verdana" font-size="13" font-weight="bold" lengthAdjust="spacing" textLength="320.6646" x="493.1382" y="1112.856">Wys&#322;anie wiadomo&#347;ci do pokoju grupowego</text><g class="message" data-entity-1="part1" data-entity-2="part2" id="msg21"><polygon fill="#2C3E50" points="253.0107,1162.1875,263.0107,1166.1875,253.0107,1170.1875,257.0107,1166.1875" style="stroke:#2C3E50;stroke-width:1;"/><line style="stroke:#2C3E50;stroke-width:1;" x1="75.1953" x2="259.0107" y1="1166.1875" y2="1166.1875"/><text fill="#000000" font-family="Verdana" font-size="13" lengthAdjust="spacing" textLength="123.7603" x="82.1953" y="1145.9888">Wysy&#322;a wiadomo&#347;&#263;</text><text fill="#000000" font-family="Verdana" font-size="13" lengthAdjust="spacing" textLength="86.7598" x="82.1953" y="1161.1216">do Pokoju #3</text></g><g class="message" data-entity-1="part2" data-entity-2="part3" id="msg22"><polygon fill="#2C3E50" points="560.3408,1206.4531,570.3408,1210.4531,560.3408,1214.4531,564.3408,1210.4531" style="stroke:#2C3E50;stroke-width:1;"/><line style="stroke:#2C3E50;stroke-width:1;" x1="275.0107" x2="566.3408" y1="1210.4531" y2="1210.4531"/><text fill="#000000" font-family="Verdana" font-size="13" lengthAdjust="spacing" textLength="161.9604" x="282.0107" y="1190.2544">WS emit: room_message</text><text fill="#000000" font-family="Verdana" font-size="13" lengthAdjust="spacing" textLength="229.4868" x="282.0107" y="1205.3872">{ room_id: 3, content: "Witajcie!" }</text></g><g class="message" data-entity-1="part3" data-entity-2="part4" id="msg23"><polygon fill="#2C3E50" points="817.9644,1235.5859,827.9644,1239.5859,817.9644,1243.5859,821.9644,1239.5859" style="stroke:#2C3E50;stroke-width:1;"/><line style="stroke:#2C3E50;stroke-width:1;" x1="582.3408" x2="823.9644" y1="1239.5859" y2="1239.5859"/><text fill="#000000" font-family="Verdana" font-size="13" lengthAdjust="spacing" textLength="228.6235" x="589.3408" y="1234.52">get_user_id_by_socket(request.sid)</text></g><g class="message" data-entity-1="part4" data-entity-2="part3" id="msg24"><polygon fill="#2C3E50" points="593.3408,1264.7188,583.3408,1268.7188,593.3408,1272.7188,589.3408,1268.7188" style="stroke:#2C3E50;stroke-width:1;"/><line style="stroke:#2C3E50;stroke-width:1;stroke-dasharray:2,2;" x1="587.3408" x2="833.9644" y1="1268.7188" y2="1268.7188"/><text fill="#000000" font-family="Verdana" font-size="13" lengthAdjust="spacing" textLength="109.3828" x="599.3408" y="1263.6528">sender_id = A_id</text></g><g class="message" data-entity-1="part3" data-entity-2="part5" id="msg25"><polygon fill="#2C3E50" points="933.7041,1308.9844,943.7041,1312.9844,933.7041,1316.9844,937.7041,1312.9844" style="stroke:#2C3E50;stroke-width:1;"/><line style="stroke:#2C3E50;stroke-width:1;" x1="582.3408" x2="939.7041" y1="1312.9844" y2="1312.9844"/><text fill="#000000" font-family="Verdana" font-size="13" lengthAdjust="spacing" textLength="152.1914" x="589.3408" y="1292.7856">INSERT INTO messages</text><text fill="#000000" font-family="Verdana" font-size="13" lengthAdjust="spacing" textLength="230.6421" x="589.3408" y="1307.9185">(sender_id=A, room_id=3, content)</text></g><g class="message" data-entity-1="part5" data-entity-2="part3" id="msg26"><polygon fill="#2C3E50" points="593.3408,1338.1172,583.3408,1342.1172,593.3408,1346.1172,589.3408,1342.1172" style="stroke:#2C3E50;stroke-width:1;"/><line style="stroke:#2C3E50;stroke-width:1;stroke-dasharray:2,2;" x1="587.3408" x2="949.7041" y1="1342.1172" y2="1342.1172"/><text fill="#000000" font-family="Verdana" font-size="13" lengthAdjust="spacing" textLength="144.9424" x="599.3408" y="1337.0513">message { id: 43, ... }</text></g><g class="message" data-entity-1="part3" data-entity-2="part2" id="msg27"><line style="stroke:#2C3E50;stroke-width:1;" x1="276.0107" x2="286.0107" y1="1389.3828" y2="1385.3828"/><line style="stroke:#2C3E50;stroke-width:1;" x1="276.0107" x2="286.0107" y1="1389.3828" y2="1393.3828"/><line style="stroke:#2C3E50;stroke-width:1;" x1="275.0107" x2="571.3408" y1="1389.3828" y2="1389.3828"/><text fill="#000000" font-family="Verdana" font-size="13" lengthAdjust="spacing" textLength="197.3423" x="292.0107" y="1369.1841">WS broadcast: room_message</text><text fill="#000000" font-family="Verdana" font-size="13" lengthAdjust="spacing" textLength="273.3301" x="292.0107" y="1384.3169">{ id:43, room_id:3, sender_id:A, content }</text></g><path d="M587,1355.1172 L587,1395.1172 L880,1395.1172 L880,1365.1172 L870,1355.1172 L587,1355.1172" fill="#FEF9E7" style="stroke:#F0B429;stroke-width:1;"/><path d="M870,1355.1172 L870,1365.1172 L880,1365.1172 L870,1355.1172" fill="#FEF9E7" style="stroke:#F0B429;stroke-width:1;"/><text fill="#000000" font-family="Verdana" font-size="13" lengthAdjust="spacing" textLength="214.4746" x="593" y="1372.1841">Broadcast do Socket.IO room "3"</text><text fill="#000000" font-family="Verdana" font-size="13" lengthAdjust="spacing" textLength="272.8984" x="593" y="1387.3169">wszyscy cz&#322;onkowie (w&#322;&#261;cznie z nadawc&#261;)</text><g class="message" data-entity-1="part3" data-entity-2="part6" id="msg29"><line style="stroke:#2C3E50;stroke-width:1;" x1="1057.6626" x2="1047.6626" y1="1436.6484" y2="1432.6484"/><line style="stroke:#2C3E50;stroke-width:1;" x1="1057.6626" x2="1047.6626" y1="1436.6484" y2="1440.6484"/><line style="stroke:#2C3E50;stroke-width:1;" x1="582.3408" x2="1058.6626" y1="1436.6484" y2="1436.6484"/><text fill="#000000" font-family="Verdana" font-size="13" lengthAdjust="spacing" textLength="197.3423" x="589.3408" y="1416.4497">WS broadcast: room_message</text><text fill="#000000" font-family="Verdana" font-size="13" lengthAdjust="spacing" textLength="273.3301" x="589.3408" y="1431.5825">{ id:43, room_id:3, sender_id:A, content }</text></g><g class="message" data-entity-1="part2" data-entity-2="part1" id="msg30"><polygon fill="#2C3E50" points="86.1953,1476.9141,76.1953,1480.9141,86.1953,1484.9141,82.1953,1480.9141" style="stroke:#2C3E50;stroke-width:1;"/><line style="stroke:#2C3E50;stroke-width:1;stroke-dasharray:2,2;" x1="80.1953" x2="264.0107" y1="1480.9141" y2="1480.9141"/><text fill="#000000" font-family="Verdana" font-size="13" lengthAdjust="spacing" textLength="143.3237" x="92.1953" y="1460.7153">Wy&#347;wietla wiadomo&#347;&#263;</text><text fill="#000000" font-family="Verdana" font-size="13" lengthAdjust="spacing" textLength="55.415" x="92.1953" y="1475.8481">(w&#322;asna)</text></g><g class="message" data-entity-1="part6" data-entity-2="part7" id="msg31"><polygon fill="#2C3E50" points="1226.2578,1521.1797,1236.2578,1525.1797,1226.2578,1529.1797,1230.2578,1525.1797" style="stroke:#2C3E50;stroke-width:1;"/><line style="stroke:#2C3E50;stroke-width:1;stroke-dasharray:2,2;" x1="1059.6626" x2="1232.2578" y1="1525.1797" y2="1525.1797"/><text fill="#000000" font-family="Verdana" font-size="13" lengthAdjust="spacing" textLength="143.3237" x="1066.6626" y="1504.981">Wy&#347;wietla wiadomo&#347;&#263;</text><text fill="#000000" font-family="Verdana" font-size="13" lengthAdjust="spacing" textLength="39.3745" x="1066.6626" y="1520.1138">(od A)</text></g><?plantuml-src rLRHRk9657ttLzprlWI9HIaawWQ9IdOmRRJR9eqJHQgGqCIUi8FDZ3iph6MYbQf8g_s0zYtzb3w67zalwPt1W75WkrBxqaIn0xvpxxddddlWXNv7fnIob33kg8JnZ4WoXLiI9MCfPZm-5QcGy7BWcTzA15urYrX6kFRhmO4_E1xuUuA5ZAai0zidhm_zaqgWeh_EA8-e9wN8Lq6ddU3uS4VGMtQ7VvnkfNnzVD8-2IhHN6Zw3E4W69m4tzQZgda6X_vHUnUqxp5FzZnXUz0P73cEPZgby4PCPvmbHEEZy18-__O7X3J9yVY4TE6cKCNYWN16uOQHM4p5uZ5YZaCY4-zUB_ugT29oJ03Ua1zm4fCy8WqNY89hpwcG2Uv02gufZy6pZmT1_NbAL3Ba1Yz6sHW_s0u9gL9Cy12BKniGXavCDBabYe9x8PGUInh-_DO-w_jxwljbVNzN6pws8U9R9kIw3zznUZr3HSb4lc42CbdaH7CwWLxFSQuzUFMTwGoPovYQJIXeIHUFJv-6d46I8i_WtXIBnvHDN5ETlIUQMYeSl9Z3Ve1dGw1JfhkOtGQCfjWt6TCXlmSjHZD5vOZ5NV3nseJ8jeNHxkdSrdhXmeTDSkJGyGEJEWoxCAPwTNvqMuoKGBBrWJI2KRgbMDpOd4Homn1UbQ0KKcVFGGyyl3anhKQMDVf-5yv-2eFBAxnTdKE9N26hwmGzhmcIubWOmZQl_UQGbrqq8QOfUqybZNi3aYfQmOC3xVjhF6Lck0T3nL6x2QrM2nklmC83jTQN_M9DTM38szliVHdeZxvfmlh_zeTwqoJLiAKUc22F87YAo-u0_jZwHXD-PQwLUI9uWtrDJjVRJ7JPaCbIaOflty2x1NjjqgAWSaPrIZRID8hBGIH6hz6Sw9azLK5l4cq0shbTN_Izgw0oiZ2ugepZIixG1Nu8BWC4tJjgRmFhBt5L1dJ-fbwpNosvsfCL9xZsXe-o-cWvrB9zknkcMpnmbWYEMnJZiXCPpGL79_Zyv-yEHR7idCNTtNeOnZf1O3iMu8_BKgrrYwXigxaXpyJSvCVzpH6riOGicc3Tb5DOLQQ6sqmOAGlEQQGR3WxHgKe4Ts-BSiywoOLOZedP32uQnPpYgDswXVn2edc1lM80UVe41majb9OYgUw4oRdBENIHCJxUPHWrR_YN-r7VY9rotu2vasAwWUFLu1XDLeMz_Va2QwAScex_aV7TtXqB75yY9ZCOoracSZeMprny-VctlLTuxc9vxcNdAqnS2kovil7sjMc_K_Nk6uPoYnZzNvZtieFUfe6lTUdEbrnwumYtKf0u8ce7UyOlEsi8tSvkwyGATjSb6x_39FugdvbvQ6bhdPtR9E1sNBHADIzKLA1LBXu4HyMXL0xonSFJnsXkP3E7vLURfu-DkiJ_2wnErU3ssRd1GnGdZVqBi_Uem6zTZVhQV7bl_WO0?></g></svg>