<?plantuml 1.2026.2?><svg xmlns="http://www.w3.org/2000/svg" xmlns:xlink="http://www.w3.org/1999/xlink" contentStyleType="text/css" data-diagram-type="SEQUENCE" height="1653px" preserveAspectRatio="none" style="width:986px;height:1653px;background:#FAFAFA;" version="1.1" viewBox="0 0 986 1653" width="986px" zoomAndPan="magnify"><title>Komunikator SR &#8212; Sekwencja: Logowanie i Nawi&#261;zanie Po&#322;&#261;czenia</title><defs/><g><rect fill="#FAFAFA" height="1653" style="stroke:none;stroke-width:1;" width="986" x="0" y="0"/><text fill="#000000" font-family="Verdana" font-size="22" font-weight="bold" lengthAdjust="spacing" textLength="824.4736" x="79.6162" y="35.4209">Komunikator SR &#8212; Sekwencja: Logowanie i Nawi&#261;zanie Po&#322;&#261;czenia</text><g><title>React</title><rect fill="#FFFFFF" height="1336.1172" style="stroke:#000000;stroke-width:1;" width="10" x="271.9473" y="218.3047"/></g><g><title>Flask</title><rect fill="#FFFFFF" height="344.5313" style="stroke:#000000;stroke-width:1;" width="10" x="564.8999" y="262.5703"/></g><g><title>Flask</title><rect fill="#FFFFFF" height="304.2656" style="stroke:#000000;stroke-width:1;" width="10" x="564.8999" y="800.8984"/></g><g><title>Flask</title><rect fill="#FFFFFF" height="160.7969" style="stroke:#000000;stroke-width:1;" width="10" x="564.8999" y="1202.5625"/></g><g><title>Flask</title><rect fill="#FFFFFF" height="102.5313" style="stroke:#000000;stroke-width:1;" width="10" x="564.8999" y="1407.625"/></g><g><title>SessionStore</title><rect fill="#FFFFFF" height="29.1328" style="stroke:#000000;stroke-width:1;" width="10" x="810.5898" y="999.6328"/></g><g><title>SessionStore</title><rect fill="#FFFFFF" height="29.1328" style="stroke:#000000;stroke-width:1;" width="10" x="810.5898" y="1289.9609"/></g><g><title>PostgreSQL</title><rect fill="#FFFFFF" height="44.2656" style="stroke:#000000;stroke-width:1;" width="10" x="926.3296" y="306.8359"/></g><g><title>PostgreSQL</title><rect fill="#FFFFFF" height="29.1328" style="stroke:#000000;stroke-width:1;" width="10" x="926.3296" y="1231.6953"/></g><g><title>PostgreSQL</title><rect fill="#FFFFFF" height="29.1328" style="stroke:#000000;stroke-width:1;" width="10" x="926.3296" y="1436.7578"/></g><rect fill="#FFFFFF" height="291.1328" style="stroke:#000000;stroke-width:1;" width="771.0396" x="15" y="423.3672"/><rect fill="#FFFFFF" height="200.6016" style="stroke:none;stroke-width:1;" width="771.0396" x="15" y="513.8984"/><rect fill="#FFFFFF" height="243" style="stroke:#000000;stroke-width:1;" width="872.9531" x="15" y="873.1641"/><rect fill="#FFFFFF" height="152.4688" style="stroke:none;stroke-width:1;" width="872.9531" x="15" y="963.6953"/><g class="participant-lifeline" data-entity-uid="part1" data-qualified-name="U" id="part1-lifeline"><g><title>U.ytkownik</title><rect fill="#000000" fill-opacity="0.00000" height="1443.5156" width="8" x="64.1816" y="128.9063"/><line style="stroke:#85929E;stroke-width:1;stroke-dasharray:5,5;" x1="68" x2="68" y1="128.9063" y2="1572.4219"/></g></g><g class="participant-lifeline" data-entity-uid="part2" data-qualified-name="FE" id="part2-lifeline"><g><title>React</title><rect fill="#000000" fill-opacity="0.00000" height="1443.5156" width="8" x="272.9473" y="128.9063"/><line style="stroke:#85929E;stroke-width:1;stroke-dasharray:5,5;" x1="276.3926" x2="276.3926" y1="128.9063" y2="1572.4219"/></g></g><g class="participant-lifeline" data-entity-uid="part3" data-qualified-name="BE" id="part3-lifeline"><g><title>Flask</title><rect fill="#000000" fill-opacity="0.00000" height="1443.5156" width="8" x="565.8999" y="128.9063"/><line style="stroke:#85929E;stroke-width:1;stroke-dasharray:5,5;" x1="569.7192" x2="569.7192" y1="128.9063" y2="1572.4219"/></g></g><g class="participant-lifeline" data-entity-uid="part4" data-qualified-name="SS" id="part4-lifeline"><g><title>SessionStore</title><rect fill="#000000" fill-opacity="0.00000" height="1443.5156" width="8" x="811.5898" y="128.9063"/><line style="stroke:#85929E;stroke-width:1;stroke-dasharray:5,5;" x1="815.2266" x2="815.2266" y1="128.9063" y2="1572.4219"/></g></g><g class="participant-lifeline" data-entity-uid="part5" data-qualified-name="DB" id="part5-lifeline"><g><title>PostgreSQL</title><rect fill="#000000" fill-opacity="0.00000" height="1443.5156" width="8" x="927.3296" y="128.9063"/><line style="stroke:#85929E;stroke-width:1;stroke-dasharray:5,5;" x1="930.9531" x2="930.9531" y1="128.9063" y2="1572.4219"/></g></g><g class="participant participant-head" data-entity-uid="part1" data-qualified-name="U" id="part1-head"><text fill="#000000" font-family="Verdana" font-size="14" lengthAdjust="spacing" textLength="80.3633" x="25" y="125.6045">U&#380;ytkownik</text><ellipse cx="68.1816" cy="60.6094" fill="#FFFFFF" rx="8" ry="8" style="stroke:#000000;stroke-width:1;"/><path d="M68.1816,68.6094 L68.1816,95.6094 M55.1816,76.6094 L81.1816,76.6094 M68.1816,95.6094 L55.1816,110.6094 M68.1816,95.6094 L81.1816,110.6094" fill="none" style="stroke:#000000;stroke-width:1;"/></g><g class="participant participant-tail" data-entity-uid="part1" data-qualified-name="U" id="part1-tail"><text fill="#000000" font-family="Verdana" font-size="14" lengthAdjust="spacing" textLength="80.3633" x="25" y="1584.417">U&#380;ytkownik</text><ellipse cx="68.1816" cy="1596.7188" fill="#FFFFFF" rx="8" ry="8" style="stroke:#000000;stroke-width:1;"/><path d="M68.1816,1604.7188 L68.1816,1631.7188 M55.1816,1612.7188 L81.1816,1612.7188 M68.1816,1631.7188 L55.1816,1646.7188 M68.1816,1631.7188 L81.1816,1646.7188" fill="none" style="stroke:#000000;stroke-width:1;"/></g><g class="participant participant-head" data-entity-uid="part2" data-qualified-name="FE" id="part2-head"><rect fill="#EBF5FB" height="46.5938" rx="2.5" ry="2.5" style="stroke:#2980B9;stroke-width:1;" width="77.1094" x="238.3926" y="81.3125"/><text fill="#000000" font-family="Verdana" font-size="14" lengthAdjust="spacing" textLength="40.1064" x="256.894" y="101.3076">React</text><text fill="#000000" font-family="Verdana" font-size="14" lengthAdjust="spacing" textLength="63.1094" x="245.3926" y="117.6045">Frontend</text></g><g class="participant participant-tail" data-entity-uid="part2" data-qualified-name="FE" id="part2-tail"><rect fill="#EBF5FB" height="46.5938" rx="2.5" ry="2.5" style="stroke:#2980B9;stroke-width:1;" width="77.1094" x="238.3926" y="1571.4219"/><text fill="#000000" font-family="Verdana" font-size="14" lengthAdjust="spacing" textLength="40.1064" x="256.894" y="1591.417">React</text><text fill="#000000" font-family="Verdana" font-size="14" lengthAdjust="spacing" textLength="63.1094" x="245.3926" y="1607.7139">Frontend</text></g><g class="participant participant-head" data-entity-uid="part3" data-qualified-name="BE" id="part3-head"><rect fill="#EBF5FB" height="62.8906" rx="2.5" ry="2.5" style="stroke:#2980B9;stroke-width:1;" width="74.3613" x="532.7192" y="65.0156"/><text fill="#000000" font-family="Verdana" font-size="14" lengthAdjust="spacing" textLength="35.9229" x="551.9385" y="85.0107">Flask</text><text fill="#000000" font-family="Verdana" font-size="14" lengthAdjust="spacing" textLength="60.3613" x="539.7192" y="101.3076">Backend</text><text fill="#000000" font-family="Verdana" font-size="14" lengthAdjust="spacing" textLength="40.3457" x="549.7271" y="117.6045">:5000</text></g><g class="participant participant-tail" data-entity-uid="part3" data-qualified-name="BE" id="part3-tail"><rect fill="#EBF5FB" height="62.8906" rx="2.5" ry="2.5" style="stroke:#2980B9;stroke-width:1;" width="74.3613" x="532.7192" y="1571.4219"/><text fill="#000000" font-family="Verdana" font-size="14" lengthAdjust="spacing" textLength="35.9229" x="551.9385" y="1591.417">Flask</text><text fill="#000000" font-family="Verdana" font-size="14" lengthAdjust="spacing" textLength="60.3613" x="539.7192" y="1607.7139">Backend</text><text fill="#000000" font-family="Verdana" font-size="14" lengthAdjust="spacing" textLength="40.3457" x="549.7271" y="1624.0107">:5000</text></g><g class="participant participant-head" data-entity-uid="part4" data-qualified-name="SS" id="part4-head"><rect fill="#EBF5FB" height="46.5938" rx="2.5" ry="2.5" style="stroke:#2980B9;stroke-width:1;" width="104.7266" x="763.2266" y="81.3125"/><text fill="#000000" font-family="Verdana" font-size="14" lengthAdjust="spacing" textLength="90.7266" x="770.2266" y="101.3076">SessionStore</text><text fill="#000000" font-family="Verdana" font-size="14" lengthAdjust="spacing" textLength="87.2334" x="771.9731" y="117.6045">(in-memory)</text></g><g class="participant participant-tail" data-entity-uid="part4" data-qualified-name="SS" id="part4-tail"><rect fill="#EBF5FB" height="46.5938" rx="2.5" ry="2.5" style="stroke:#2980B9;stroke-width:1;" width="104.7266" x="763.2266" y="1571.4219"/><text fill="#000000" font-family="Verdana" font-size="14" lengthAdjust="spacing" textLength="90.7266" x="770.2266" y="1591.417">SessionStore</text><text fill="#000000" font-family="Verdana" font-size="14" lengthAdjust="spacing" textLength="87.2334" x="771.9731" y="1607.7139">(in-memory)</text></g><g class="participant participant-head" data-entity-uid="part5" data-qualified-name="DB" id="part5-head"><text fill="#000000" font-family="Verdana" font-size="14" lengthAdjust="spacing" textLength="80.7529" x="887.9531" y="125.6045">PostgreSQL</text><path d="M913.3296,76.6094 C913.3296,66.6094 931.3296,66.6094 931.3296,66.6094 C931.3296,66.6094 949.3296,66.6094 949.3296,76.6094 L949.3296,102.6094 C949.3296,112.6094 931.3296,112.6094 931.3296,112.6094 C931.3296,112.6094 913.3296,112.6094 913.3296,102.6094 L913.3296,76.6094" fill="#FFFFFF" style="stroke:#000000;stroke-width:1;"/><path d="M913.3296,76.6094 C913.3296,86.6094 931.3296,86.6094 931.3296,86.6094 C931.3296,86.6094 949.3296,86.6094 949.3296,76.6094" fill="none" style="stroke:#000000;stroke-width:1;"/></g><g class="participant participant-tail" data-entity-uid="part5" data-qualified-name="DB" id="part5-tail"><text fill="#000000" font-family="Verdana" font-size="14" lengthAdjust="spacing" textLength="80.7529" x="887.9531" y="1584.417">PostgreSQL</text><path d="M913.3296,1597.7188 C913.3296,1587.7188 931.3296,1587.7188 931.3296,1587.7188 C931.3296,1587.7188 949.3296,1587.7188 949.3296,1597.7188 L949.3296,1623.7188 C949.3296,1633.7188 931.3296,1633.7188 931.3296,1633.7188 C931.3296,1633.7188 913.3296,1633.7188 913.3296,1623.7188 L913.3296,1597.7188" fill="#FFFFFF" style="stroke:#000000;stroke-width:1;"/><path d="M913.3296,1597.7188 C913.3296,1607.7188 931.3296,1607.7188 931.3296,1607.7188 C931.3296,1607.7188 949.3296,1607.7188 949.3296,1597.7188" fill="none" style="stroke:#000000;stroke-width:1;"/></g><g><title>React</title><rect fill="#FFFFFF" height="1336.1172" style="stroke:#000000;stroke-width:1;" width="10" x="271.9473" y="218.3047"/></g><g><title>Flask</title><rect fill="#FFFFFF" height="344.5313" style="stroke:#000000;stroke-width:1;" width="10" x="564.8999" y="262.5703"/></g><g><title>Flask</title><rect fill="#FFFFFF" height="304.2656" style="stroke:#000000;stroke-width:1;" width="10" x="564.8999" y="800.8984"/></g><g><title>Flask</title><rect fill="#FFFFFF" height="160.7969" style="stroke:#000000;stroke-width:1;" width="10" x="564.8999" y="1202.5625"/></g><g><title>Flask</title><rect fill="#FFFFFF" height="102.5313" style="stroke:#000000;stroke-width:1;" width="10" x="564.8999" y="1407.625"/></g><g><title>SessionStore</title><rect fill="#FFFFFF" height="29.1328" style="stroke:#000000;stroke-width:1;" width="10" x="810.5898" y="999.6328"/></g><g><title>SessionStore</title><rect fill="#FFFFFF" height="29.1328" style="stroke:#000000;stroke-width:1;" width="10" x="810.5898" y="1289.9609"/></g><g><title>PostgreSQL</title><rect fill="#FFFFFF" height="44.2656" style="stroke:#000000;stroke-width:1;" width="10" x="926.3296" y="306.8359"/></g><g><title>PostgreSQL</title><rect fill="#FFFFFF" height="29.1328" style="stroke:#000000;stroke-width:1;" width="10" x="926.3296" y="1231.6953"/></g><g><title>PostgreSQL</title><rect fill="#FFFFFF" height="29.1328" style="stroke:#000000;stroke-width:1;" width="10" x="926.3296" y="1436.7578"/></g><rect fill="#FFFFFF" height="3" style="stroke:#FFFFFF;stroke-width:1;" width="974.7061" x="5" y="159.4727"/><line style="stroke:#000000;stroke-width:0.5;" x1="5" x2="979.7061" y1="159.4727" y2="159.4727"/><line style="stroke:#000000;stroke-width:0.5;" x1="5" x2="979.7061" y1="162.4727" y2="162.4727"/><rect fill="#FFFFFF" height="23.1328" style="stroke:#000000;stroke-width:1;" width="97.2876" x="443.7092" y="148.9063"/><text fill="#000000" font-family="Verdana" font-size="13" font-weight="bold" lengthAdjust="spacing" textLength="78.7617" x="449.7092" y="164.9731">Logowanie</text><g class="message" data-entity-1="part1" data-entity-2="part2" id="msg1"><polygon fill="#2C3E50" points="259.9473,214.3047,269.9473,218.3047,259.9473,222.3047,263.9473,218.3047" style="stroke:#2C3E50;stroke-width:1;"/><line style="stroke:#2C3E50;stroke-width:1;" x1="68.1816" x2="265.9473" y1="218.3047" y2="218.3047"/><text fill="#000000" font-family="Verdana" font-size="13" lengthAdjust="spacing" textLength="169.8125" x="75.1816" y="198.106">Wprowadza email + has&#322;o</text><text fill="#000000" font-family="Verdana" font-size="13" lengthAdjust="spacing" textLength="95.875" x="75.1816" y="213.2388">Klika "Zaloguj"</text></g><g class="message" data-entity-1="part2" data-entity-2="part3" id="msg2"><polygon fill="#2C3E50" points="552.8999,258.5703,562.8999,262.5703,552.8999,266.5703,556.8999,262.5703" style="stroke:#2C3E50;stroke-width:1;"/><line style="stroke:#2C3E50;stroke-width:1;" x1="281.9473" x2="558.8999" y1="262.5703" y2="262.5703"/><text fill="#000000" font-family="Verdana" font-size="13" lengthAdjust="spacing" textLength="132.5771" x="288.9473" y="242.3716">POST /api/auth/login</text><text fill="#000000" font-family="Verdana" font-size="13" lengthAdjust="spacing" textLength="130.8696" x="288.9473" y="257.5044">{ email, password }</text></g><g class="message" data-entity-1="part3" data-entity-2="part5" id="msg3"><polygon fill="#2C3E50" points="914.3296,302.8359,924.3296,306.8359,914.3296,310.8359,918.3296,306.8359" style="stroke:#2C3E50;stroke-width:1;"/><line style="stroke:#2C3E50;stroke-width:1;" x1="574.8999" x2="920.3296" y1="306.8359" y2="306.8359"/><text fill="#000000" font-family="Verdana" font-size="13" lengthAdjust="spacing" textLength="140.9243" x="581.8999" y="286.6372">SELECT * FROM users</text><text fill="#000000" font-family="Verdana" font-size="13" lengthAdjust="spacing" textLength="114.1309" x="581.8999" y="301.77">WHERE email = ?</text></g><g class="message" data-entity-1="part5" data-entity-2="part3" id="msg4"><polygon fill="#2C3E50" points="585.8999,347.1016,575.8999,351.1016,585.8999,355.1016,581.8999,351.1016" style="stroke:#2C3E50;stroke-width:1;"/><line style="stroke:#2C3E50;stroke-width:1;stroke-dasharray:2,2;" x1="579.8999" x2="930.3296" y1="351.1016" y2="351.1016"/><text fill="#000000" font-family="Verdana" font-size="13" lengthAdjust="spacing" textLength="75.8037" x="591.8999" y="330.9028">User record</text><text fill="#000000" font-family="Verdana" font-size="13" lengthAdjust="spacing" textLength="203.4233" x="591.8999" y="346.0356">(id, username, password_hash)</text></g><g class="message" data-entity-1="part3" data-entity-2="part3" id="msg5"><line style="stroke:#2C3E50;stroke-width:1;" x1="574.8999" x2="616.8999" y1="395.3672" y2="395.3672"/><line style="stroke:#2C3E50;stroke-width:1;" x1="616.8999" x2="616.8999" y1="395.3672" y2="408.3672"/><line style="stroke:#2C3E50;stroke-width:1;" x1="575.8999" x2="616.8999" y1="408.3672" y2="408.3672"/><polygon fill="#2C3E50" points="585.8999,404.3672,575.8999,408.3672,585.8999,412.3672,581.8999,408.3672" style="stroke:#2C3E50;stroke-width:1;"/><text fill="#000000" font-family="Verdana" font-size="13" lengthAdjust="spacing" textLength="190.144" x="581.8999" y="375.1685">bcrypt.check_password_hash</text><text fill="#000000" font-family="Verdana" font-size="13" lengthAdjust="spacing" textLength="180.0195" x="581.8999" y="390.3013">(password_hash, password)</text></g><path d="M15,423.3672 L79.4429,423.3672 L79.4429,430.5 L69.4429,440.5 L15,440.5 L15,423.3672" fill="#F2F3F4" style="stroke:#000000;stroke-width:1;"/><rect fill="none" height="291.1328" style="stroke:#000000;stroke-width:1;" width="771.0396" x="15" y="423.3672"/><text fill="#000000" font-family="Verdana" font-size="13" font-weight="bold" lengthAdjust="spacing" textLength="19.4429" x="30" y="436.4341">alt</text><text fill="#000000" font-family="Verdana" font-size="11" font-weight="bold" lengthAdjust="spacing" textLength="129.3682" x="94.4429" y="435.5776">[Has&#322;o niepoprawne]</text><g class="message" data-entity-1="part3" data-entity-2="part2" id="msg6"><polygon fill="#2C3E50" points="292.9473,472.7656,282.9473,476.7656,292.9473,480.7656,288.9473,476.7656" style="stroke:#2C3E50;stroke-width:1;"/><line style="stroke:#2C3E50;stroke-width:1;stroke-dasharray:2,2;" x1="286.9473" x2="563.8999" y1="476.7656" y2="476.7656"/><text fill="#000000" font-family="Verdana" font-size="13" lengthAdjust="spacing" textLength="116.2256" x="298.9473" y="456.5669">401 Unauthorized</text><text fill="#000000" font-family="Verdana" font-size="13" lengthAdjust="spacing" textLength="208.603" x="298.9473" y="471.6997">{ "error": "Invalid credentials" }</text></g><g class="message" data-entity-1="part2" data-entity-2="part1" id="msg7"><polygon fill="#2C3E50" points="79.1816,501.8984,69.1816,505.8984,79.1816,509.8984,75.1816,505.8984" style="stroke:#2C3E50;stroke-width:1;"/><line style="stroke:#2C3E50;stroke-width:1;stroke-dasharray:2,2;" x1="73.1816" x2="270.9473" y1="505.8984" y2="505.8984"/><text fill="#000000" font-family="Verdana" font-size="13" lengthAdjust="spacing" textLength="179.7656" x="85.1816" y="500.8325">Wy&#347;wietla komunikat b&#322;&#281;du</text></g><line style="stroke:#000000;stroke-width:1;stroke-dasharray:2,2;" x1="15" x2="786.0396" y1="514.8984" y2="514.8984"/><text fill="#000000" font-family="Verdana" font-size="11" font-weight="bold" lengthAdjust="spacing" textLength="110.3062" x="20" y="525.1089">[Has&#322;o poprawne]</text><g class="message" data-entity-1="part3" data-entity-2="part3" id="msg8"><line style="stroke:#2C3E50;stroke-width:1;" x1="574.8999" x2="616.8999" y1="549.8359" y2="549.8359"/><line style="stroke:#2C3E50;stroke-width:1;" x1="616.8999" x2="616.8999" y1="549.8359" y2="562.8359"/><line style="stroke:#2C3E50;stroke-width:1;" x1="575.8999" x2="616.8999" y1="562.8359" y2="562.8359"/><polygon fill="#2C3E50" points="585.8999,558.8359,575.8999,562.8359,585.8999,566.8359,581.8999,562.8359" style="stroke:#2C3E50;stroke-width:1;"/><text fill="#000000" font-family="Verdana" font-size="13" lengthAdjust="spacing" textLength="182.1396" x="581.8999" y="544.77">jwt.encode({ sub: user.id })</text></g><g class="message" data-entity-1="part3" data-entity-2="part2" id="msg9"><polygon fill="#2C3E50" points="292.9473,603.1016,282.9473,607.1016,292.9473,611.1016,288.9473,607.1016" style="stroke:#2C3E50;stroke-width:1;"/><line style="stroke:#2C3E50;stroke-width:1;stroke-dasharray:2,2;" x1="286.9473" x2="568.8999" y1="607.1016" y2="607.1016"/><text fill="#000000" font-family="Verdana" font-size="13" lengthAdjust="spacing" textLength="47.7026" x="298.9473" y="586.9028">200 OK</text><text fill="#000000" font-family="Verdana" font-size="13" lengthAdjust="spacing" textLength="258.9526" x="298.9473" y="602.0356">{ access_token, user: {id, username} }</text></g><g class="message" data-entity-1="part2" data-entity-2="part2" id="msg10"><line style="stroke:#2C3E50;stroke-width:1;" x1="281.9473" x2="323.9473" y1="651.3672" y2="651.3672"/><line style="stroke:#2C3E50;stroke-width:1;" x1="323.9473" x2="323.9473" y1="651.3672" y2="664.3672"/><line style="stroke:#2C3E50;stroke-width:1;" x1="282.9473" x2="323.9473" y1="664.3672" y2="664.3672"/><polygon fill="#2C3E50" points="292.9473,660.3672,282.9473,664.3672,292.9473,668.3672,288.9473,664.3672" style="stroke:#2C3E50;stroke-width:1;"/><text fill="#000000" font-family="Verdana" font-size="13" lengthAdjust="spacing" textLength="134.748" x="288.9473" y="631.1685">localStorage.setItem</text><text fill="#000000" font-family="Verdana" font-size="13" lengthAdjust="spacing" textLength="154.3052" x="288.9473" y="646.3013">("token", access_token)</text></g><g class="message" data-entity-1="part2" data-entity-2="part2" id="msg11"><line style="stroke:#2C3E50;stroke-width:1;" x1="281.9473" x2="323.9473" y1="693.5" y2="693.5"/><line style="stroke:#2C3E50;stroke-width:1;" x1="323.9473" x2="323.9473" y1="693.5" y2="706.5"/><line style="stroke:#2C3E50;stroke-width:1;" x1="282.9473" x2="323.9473" y1="706.5" y2="706.5"/><polygon fill="#2C3E50" points="292.9473,702.5,282.9473,706.5,292.9473,710.5,288.9473,706.5" style="stroke:#2C3E50;stroke-width:1;"/><text fill="#000000" font-family="Verdana" font-size="13" lengthAdjust="spacing" textLength="145.3994" x="288.9473" y="688.4341">AuthContext.setUser()</text></g><rect fill="#FFFFFF" height="3" style="stroke:#FFFFFF;stroke-width:1;" width="974.7061" x="5" y="742.0664"/><line style="stroke:#000000;stroke-width:0.5;" x1="5" x2="979.7061" y1="742.0664" y2="742.0664"/><line style="stroke:#000000;stroke-width:0.5;" x1="5" x2="979.7061" y1="745.0664" y2="745.0664"/><rect fill="#FFFFFF" height="23.1328" style="stroke:#000000;stroke-width:1;" width="271.8799" x="356.4131" y="731.5"/><text fill="#000000" font-family="Verdana" font-size="13" font-weight="bold" lengthAdjust="spacing" textLength="253.354" x="362.4131" y="747.5669">Nawi&#261;zanie po&#322;&#261;czenia WebSocket</text><g class="message" data-entity-1="part2" data-entity-2="part3" id="msg12"><polygon fill="#2C3E50" points="552.8999,796.8984,562.8999,800.8984,552.8999,804.8984,556.8999,800.8984" style="stroke:#2C3E50;stroke-width:1;"/><line style="stroke:#2C3E50;stroke-width:1;" x1="281.9473" x2="558.8999" y1="800.8984" y2="800.8984"/><text fill="#000000" font-family="Verdana" font-size="13" lengthAdjust="spacing" textLength="130.2983" x="288.9473" y="780.6997">Socket.IO CONNECT</text><text fill="#000000" font-family="Verdana" font-size="13" lengthAdjust="spacing" textLength="101.0229" x="288.9473" y="795.8325">?token=&lt;JWT&gt;</text></g><g class="message" data-entity-1="part3" data-entity-2="part3" id="msg13"><line style="stroke:#2C3E50;stroke-width:1;" x1="574.8999" x2="616.8999" y1="845.1641" y2="845.1641"/><line style="stroke:#2C3E50;stroke-width:1;" x1="616.8999" x2="616.8999" y1="845.1641" y2="858.1641"/><line style="stroke:#2C3E50;stroke-width:1;" x1="575.8999" x2="616.8999" y1="858.1641" y2="858.1641"/><polygon fill="#2C3E50" points="585.8999,854.1641,575.8999,858.1641,585.8999,862.1641,581.8999,858.1641" style="stroke:#2C3E50;stroke-width:1;"/><text fill="#000000" font-family="Verdana" font-size="13" lengthAdjust="spacing" textLength="118.0347" x="581.8999" y="824.9653">jwt.decode(token)</text><text fill="#000000" font-family="Verdana" font-size="13" lengthAdjust="spacing" textLength="171.2217" x="581.8999" y="840.0981">extract user_id from "sub"</text></g><path d="M15,873.1641 L79.4429,873.1641 L79.4429,880.2969 L69.4429,890.2969 L15,890.2969 L15,873.1641" fill="#F2F3F4" style="stroke:#000000;stroke-width:1;"/><rect fill="none" height="243" style="stroke:#000000;stroke-width:1;" width="872.9531" x="15" y="873.1641"/><text fill="#000000" font-family="Verdana" font-size="13" font-weight="bold" lengthAdjust="spacing" textLength="19.4429" x="30" y="886.231">alt</text><text fill="#000000" font-family="Verdana" font-size="11" font-weight="bold" lengthAdjust="spacing" textLength="142.1138" x="94.4429" y="885.3745">[Token nieprawid&#322;owy]</text><g class="message" data-entity-1="part3" data-entity-2="part2" id="msg14"><polygon fill="#2C3E50" points="292.9473,922.5625,282.9473,926.5625,292.9473,930.5625,288.9473,926.5625" style="stroke:#2C3E50;stroke-width:1;"/><line style="stroke:#2C3E50;stroke-width:1;stroke-dasharray:2,2;" x1="286.9473" x2="563.8999" y1="926.5625" y2="926.5625"/><text fill="#000000" font-family="Verdana" font-size="13" lengthAdjust="spacing" textLength="78.2222" x="298.9473" y="906.3638">return False</text><text fill="#000000" font-family="Verdana" font-size="13" lengthAdjust="spacing" textLength="151.9121" x="298.9473" y="921.4966">(po&#322;&#261;czenie odrzucone)</text></g><g class="message" data-entity-1="part2" data-entity-2="part1" id="msg15"><polygon fill="#2C3E50" points="79.1816,951.6953,69.1816,955.6953,79.1816,959.6953,75.1816,955.6953" style="stroke:#2C3E50;stroke-width:1;"/><line style="stroke:#2C3E50;stroke-width:1;stroke-dasharray:2,2;" x1="73.1816" x2="270.9473" y1="955.6953" y2="955.6953"/><text fill="#000000" font-family="Verdana" font-size="13" lengthAdjust="spacing" textLength="114.5752" x="85.1816" y="950.6294">"B&#322;&#261;d po&#322;&#261;czenia"</text></g><line style="stroke:#000000;stroke-width:1;stroke-dasharray:2,2;" x1="15" x2="887.9531" y1="964.6953" y2="964.6953"/><text fill="#000000" font-family="Verdana" font-size="11" font-weight="bold" lengthAdjust="spacing" textLength="112.8682" x="20" y="974.9058">[Token poprawny]</text><g class="message" data-entity-1="part3" data-entity-2="part4" id="msg16"><polygon fill="#2C3E50" points="798.5898,995.6328,808.5898,999.6328,798.5898,1003.6328,802.5898,999.6328" style="stroke:#2C3E50;stroke-width:1;"/><line style="stroke:#2C3E50;stroke-width:1;" x1="574.8999" x2="804.5898" y1="999.6328" y2="999.6328"/><text fill="#000000" font-family="Verdana" font-size="13" lengthAdjust="spacing" textLength="216.6899" x="581.8999" y="994.5669">add_session(user_id, request.sid)</text></g><g class="message" data-entity-1="part4" data-entity-2="part3" id="msg17"><polygon fill="#2C3E50" points="585.8999,1024.7656,575.8999,1028.7656,585.8999,1032.7656,581.8999,1028.7656" style="stroke:#2C3E50;stroke-width:1;"/><line style="stroke:#2C3E50;stroke-width:1;stroke-dasharray:2,2;" x1="579.8999" x2="814.5898" y1="1028.7656" y2="1028.7656"/><text fill="#000000" font-family="Verdana" font-size="13" lengthAdjust="spacing" textLength="18.7573" x="591.8999" y="1023.6997">OK</text></g><g class="message" data-entity-1="part3" data-entity-2="part2" id="msg18"><polygon fill="#2C3E50" points="292.9473,1053.8984,282.9473,1057.8984,292.9473,1061.8984,288.9473,1057.8984" style="stroke:#2C3E50;stroke-width:1;"/><line style="stroke:#2C3E50;stroke-width:1;stroke-dasharray:2,2;" x1="286.9473" x2="563.8999" y1="1057.8984" y2="1057.8984"/><text fill="#000000" font-family="Verdana" font-size="13" lengthAdjust="spacing" textLength="119.5708" x="298.9473" y="1052.8325">EVENT: connected</text></g><g class="message" data-entity-1="part3" data-entity-2="part2" id="msg19"><line style="stroke:#2C3E50;stroke-width:1;" x1="282.9473" x2="292.9473" y1="1105.1641" y2="1101.1641"/><line style="stroke:#2C3E50;stroke-width:1;" x1="282.9473" x2="292.9473" y1="1105.1641" y2="1109.1641"/><line style="stroke:#2C3E50;stroke-width:1;" x1="281.9473" x2="568.8999" y1="1105.1641" y2="1105.1641"/><text fill="#000000" font-family="Verdana" font-size="13" lengthAdjust="spacing" textLength="195.1841" x="298.9473" y="1084.9653">broadcast EVENT: user_status</text><text fill="#000000" font-family="Verdana" font-size="13" lengthAdjust="spacing" textLength="172.0532" x="298.9473" y="1100.0981">{ user_id: X, online: true }</text></g><path d="M579,1070.8984 L579,1110.8984 L772,1110.8984 L772,1080.8984 L762,1070.8984 L579,1070.8984" fill="#FEF9E7" style="stroke:#F0B429;stroke-width:1;"/><path d="M762,1070.8984 L762,1080.8984 L772,1080.8984 L762,1070.8984" fill="#FEF9E7" style="stroke:#F0B429;stroke-width:1;"/><text fill="#000000" font-family="Verdana" font-size="13" lengthAdjust="spacing" textLength="172.7388" x="585" y="1087.9653">Wysy&#322;ane do WSZYSTKICH</text><text fill="#000000" font-family="Verdana" font-size="13" lengthAdjust="spacing" textLength="139.915" x="585" y="1103.0981">po&#322;&#261;czonych klient&#243;w</text><rect fill="#FFFFFF" height="3" style="stroke:#FFFFFF;stroke-width:1;" width="974.7061" x="5" y="1143.7305"/><line style="stroke:#000000;stroke-width:0.5;" x1="5" x2="979.7061" y1="1143.7305" y2="1143.7305"/><line style="stroke:#000000;stroke-width:0.5;" x1="5" x2="979.7061" y1="1146.7305" y2="1146.7305"/><rect fill="#FFFFFF" height="23.1328" style="stroke:#000000;stroke-width:1;" width="240.7383" x="371.9839" y="1133.1641"/><text fill="#000000" font-family="Verdana" font-size="13" font-weight="bold" lengthAdjust="spacing" textLength="222.2124" x="377.9839" y="1149.231">&#321;adowanie danych startowych</text><g class="message" data-entity-1="part2" data-entity-2="part3" id="msg21"><polygon fill="#2C3E50" points="552.8999,1198.5625,562.8999,1202.5625,552.8999,1206.5625,556.8999,1202.5625" style="stroke:#2C3E50;stroke-width:1;"/><line style="stroke:#2C3E50;stroke-width:1;" x1="281.9473" x2="558.8999" y1="1202.5625" y2="1202.5625"/><text fill="#000000" font-family="Verdana" font-size="13" lengthAdjust="spacing" textLength="98.4585" x="288.9473" y="1182.3638">GET /api/users/</text><text fill="#000000" font-family="Verdana" font-size="13" lengthAdjust="spacing" textLength="189.6997" x="288.9473" y="1197.4966">Authorization: Bearer &lt;JWT&gt;</text></g><g class="message" data-entity-1="part3" data-entity-2="part5" id="msg22"><polygon fill="#2C3E50" points="914.3296,1227.6953,924.3296,1231.6953,914.3296,1235.6953,918.3296,1231.6953" style="stroke:#2C3E50;stroke-width:1;"/><line style="stroke:#2C3E50;stroke-width:1;" x1="574.8999" x2="920.3296" y1="1231.6953" y2="1231.6953"/><text fill="#000000" font-family="Verdana" font-size="13" lengthAdjust="spacing" textLength="98.833" x="581.8999" y="1226.6294">SELECT users.*</text></g><g class="message" data-entity-1="part5" data-entity-2="part3" id="msg23"><polygon fill="#2C3E50" points="585.8999,1256.8281,575.8999,1260.8281,585.8999,1264.8281,581.8999,1260.8281" style="stroke:#2C3E50;stroke-width:1;"/><line style="stroke:#2C3E50;stroke-width:1;stroke-dasharray:2,2;" x1="579.8999" x2="930.3296" y1="1260.8281" y2="1260.8281"/><text fill="#000000" font-family="Verdana" font-size="13" lengthAdjust="spacing" textLength="45.2715" x="591.8999" y="1255.7622">users[]</text></g><g class="message" data-entity-1="part3" data-entity-2="part4" id="msg24"><polygon fill="#2C3E50" points="798.5898,1285.9609,808.5898,1289.9609,798.5898,1293.9609,802.5898,1289.9609" style="stroke:#2C3E50;stroke-width:1;"/><line style="stroke:#2C3E50;stroke-width:1;" x1="574.8999" x2="804.5898" y1="1289.9609" y2="1289.9609"/><text fill="#000000" font-family="Verdana" font-size="13" lengthAdjust="spacing" textLength="137.6362" x="581.8999" y="1284.895">get_online_user_ids()</text></g><g class="message" data-entity-1="part4" data-entity-2="part3" id="msg25"><polygon fill="#2C3E50" points="585.8999,1315.0938,575.8999,1319.0938,585.8999,1323.0938,581.8999,1319.0938" style="stroke:#2C3E50;stroke-width:1;"/><line style="stroke:#2C3E50;stroke-width:1;stroke-dasharray:2,2;" x1="579.8999" x2="814.5898" y1="1319.0938" y2="1319.0938"/><text fill="#000000" font-family="Verdana" font-size="13" lengthAdjust="spacing" textLength="89.6289" x="591.8999" y="1314.0278">{user_id_set}</text></g><g class="message" data-entity-1="part3" data-entity-2="part2" id="msg26"><polygon fill="#2C3E50" points="292.9473,1359.3594,282.9473,1363.3594,292.9473,1367.3594,288.9473,1363.3594" style="stroke:#2C3E50;stroke-width:1;"/><line style="stroke:#2C3E50;stroke-width:1;stroke-dasharray:2,2;" x1="286.9473" x2="568.8999" y1="1363.3594" y2="1363.3594"/><text fill="#000000" font-family="Verdana" font-size="13" lengthAdjust="spacing" textLength="47.7026" x="298.9473" y="1343.1606">200 OK</text><text fill="#000000" font-family="Verdana" font-size="13" lengthAdjust="spacing" textLength="196.2378" x="298.9473" y="1358.2935">[{id, username, online: bool}]</text></g><g class="message" data-entity-1="part2" data-entity-2="part3" id="msg27"><polygon fill="#2C3E50" points="552.8999,1403.625,562.8999,1407.625,552.8999,1411.625,556.8999,1407.625" style="stroke:#2C3E50;stroke-width:1;"/><line style="stroke:#2C3E50;stroke-width:1;" x1="281.9473" x2="558.8999" y1="1407.625" y2="1407.625"/><text fill="#000000" font-family="Verdana" font-size="13" lengthAdjust="spacing" textLength="104.019" x="288.9473" y="1387.4263">GET /api/rooms/</text><text fill="#000000" font-family="Verdana" font-size="13" lengthAdjust="spacing" textLength="189.6997" x="288.9473" y="1402.5591">Authorization: Bearer &lt;JWT&gt;</text></g><g class="message" data-entity-1="part3" data-entity-2="part5" id="msg28"><polygon fill="#2C3E50" points="914.3296,1432.7578,924.3296,1436.7578,914.3296,1440.7578,918.3296,1436.7578" style="stroke:#2C3E50;stroke-width:1;"/><line style="stroke:#2C3E50;stroke-width:1;" x1="574.8999" x2="920.3296" y1="1436.7578" y2="1436.7578"/><text fill="#000000" font-family="Verdana" font-size="13" lengthAdjust="spacing" textLength="252.04" x="581.8999" y="1431.6919">SELECT rooms WHERE user is member</text></g><g class="message" data-entity-1="part5" data-entity-2="part3" id="msg29"><polygon fill="#2C3E50" points="585.8999,1461.8906,575.8999,1465.8906,585.8999,1469.8906,581.8999,1465.8906" style="stroke:#2C3E50;stroke-width:1;"/><line style="stroke:#2C3E50;stroke-width:1;stroke-dasharray:2,2;" x1="579.8999" x2="930.3296" y1="1465.8906" y2="1465.8906"/><text fill="#000000" font-family="Verdana" font-size="13" lengthAdjust="spacing" textLength="50.832" x="591.8999" y="1460.8247">rooms[]</text></g><g class="message" data-entity-1="part3" data-entity-2="part2" id="msg30"><polygon fill="#2C3E50" points="292.9473,1506.1563,282.9473,1510.1563,292.9473,1514.1563,288.9473,1510.1563" style="stroke:#2C3E50;stroke-width:1;"/><line style="stroke:#2C3E50;stroke-width:1;stroke-dasharray:2,2;" x1="286.9473" x2="568.8999" y1="1510.1563" y2="1510.1563"/><text fill="#000000" font-family="Verdana" font-size="13" lengthAdjust="spacing" textLength="47.7026" x="298.9473" y="1489.9575">200 OK</text><text fill="#000000" font-family="Verdana" font-size="13" lengthAdjust="spacing" textLength="164.1948" x="298.9473" y="1505.0903">[{id, name, created_by}]</text></g><g class="message" data-entity-1="part2" data-entity-2="part1" id="msg31"><polygon fill="#2C3E50" points="79.1816,1550.4219,69.1816,1554.4219,79.1816,1558.4219,75.1816,1554.4219" style="stroke:#2C3E50;stroke-width:1;"/><line style="stroke:#2C3E50;stroke-width:1;stroke-dasharray:2,2;" x1="73.1816" x2="275.9473" y1="1554.4219" y2="1554.4219"/><text fill="#000000" font-family="Verdana" font-size="13" lengthAdjust="spacing" textLength="97.4048" x="85.1816" y="1534.2231">Wy&#347;wietla czat</text><text fill="#000000" font-family="Verdana" font-size="13" lengthAdjust="spacing" textLength="175.9063" x="85.1816" y="1549.356">z list&#261; kontakt&#243;w i pokoj&#243;w</text></g><?plantuml-src fLR1KkD64BthAphA1M_0E2nK5bVC5cAbXK2080Z9hbEkiQRN7YpFE3FZTMoAgeGg_Y2NL3uZrzo2VoHVaXv9Nil6d0A52-CtRrw_VjtYCzl5Fi8WPK9wfYVaW6dMXpPBUXsjXf8Vg5Hf-3pQTzyb1BrQaOW1apPO1eT1j1C5pu2LvgWBuDRkgrgmMm8Q_7c8Ci5zhTLe1Zfu6UxKLe1En0VwaRX0-MfdTsitBA6bilX4OHH6k-5NowWoJrGBjhTMINjBF8EdX5lHosZRywomASAnwW-bw35B7yKNyE-llqEClH4Tls5rE54TDM9I80WuPIFn-339tfshwVtZGp91APZdiSITlfh-FROzDI8sO0Qkl9ALu5yWePeoqafQbDnta2XSn4GfCxscT8e9qfJrdLgjbY639MICnWWbOxeNct9Do8q-zfKULp9q77kSMTPc1i4_LyPsDCRVdMIVlGayhz4e5TPeUDuLREoHcZfS3wYPZ4yOO9-95Bw0BZFJUzMKnocP1FuxbghEyCPtDOkFpA8hmej2Hn0GmVbPV0cRR20ssT1sDmaiP5FUvdJhb2vZHjGxk9iJK6rUa16y2UeGXoVXmIMyWEZYx5iO6jIcAQyFmukmaDI0r_EpLCsR03QAowy83HeJki2PmjUpyvBrSNvpYmhgLZoEPOxYViVHJlHuOAj95vDUQ-4GKIwydtDMF9PQECoS0l9qe0QQZIHwG5-Ekd1tk_ObN4bdZD9YWjmPuoFDZ_Rhu1_9ZomL71AD7AKLB3K--UGuefpZYXeqdluv4cXJ1hrPSg5DOVo33prCgU65Z2SQyl9kHhPAsLOSrsx13DlrpA8gNNjNMPQxLQl1sR4JoPA40jUoYdAPcrg7sxA_TuNGagskhJFjEL-g4fQwoB8ELWtQ8ujzCjNFQFtrXLigIsVtoRG3Dpg_M7VKTNgjuj6KP6akZ-QWD9fmZUrOqJJPBERpcEP_h1wTmS7PwIa5hYbVP_Ssllxc-d9lLJXdxd7CtCjLDYK9qeJEd6YHZH-qweDFplfPA2uTBCi4TKDmwinelEopHZlK4Y9gk1lcKW48Ykl9C54IAqj1y0E7uWlb-da2yZkB08nB0OZZEZ3EMoRV7ck5vdLIG0lJaBE2v_TygfzMYNiVnv-6xEnukTE4MIuf_3uylQm32PUOMEHpm5uEQ6l5UCACdK4pBSOoEpGkSOMqElom3agczEYeWzL3B7BcdW6WHQThtKYOyVIUIGIku3f-zsDyUNnqSDYKCskK72TTwAM2fkgVlqOhWZhBqVGtnekro5bsYXHfIpsZNnSJz3OizboseZQRShyOQsR9sZe4o3HjewTnUhBgCeBgY-UMMlRn-v-MDjQyeHsqhToXLc6QeSaeDwVKlDi2GX6mTzvY3rTC_llRnIKwwqHRgVHkGL8GhZH7AzN_N-Pa193lVwS3X05wrBLHF-TNTcAbNokBomkZdKj0tcgFLvVrPFacL4fJJY0LnZu-q2wMblLSkkWVXO7ggHiNj18HFIN_0m00?></g></svg>